<svg version="1.1" id="Layer_1" xmlns="http://www.w3.org/2000/svg" xmlns:xlink="http://www.w3.org/1999/xlink" x="0px" y="0px"
	 width="100%" viewBox="0 0 800 800" enable-background="new 0 0 800 800" xml:space="preserve">
<path fill="#FFFFFF" opacity="1.000000" stroke="none" 
	d="
M444.000000,801.000000 
	C296.000000,801.000000 148.500000,801.000000 1.000000,801.000000 
	C1.000000,534.333313 1.000000,267.666656 1.000000,1.000000 
	C267.666656,1.000000 534.333313,1.000000 801.000000,1.000000 
	C801.000000,267.666656 801.000000,534.333313 801.000000,801.000000 
	C682.166687,801.000000 563.333313,801.000000 444.000000,801.000000 
M657.108032,449.948120 
	C651.404724,449.994141 645.701416,450.040161 639.074402,449.917908 
	C633.322021,449.917908 627.569580,449.917908 621.046936,449.917908 
	C621.046936,443.848236 621.046936,438.422272 621.240662,432.075958 
	C621.204895,424.786041 621.169189,417.496155 622.011292,409.893250 
	C635.020935,409.682068 648.030579,409.470917 661.803833,409.538605 
	C668.776123,409.602386 675.750610,409.799744 682.719971,409.684601 
	C687.636658,409.603394 691.414246,405.984619 691.401917,401.855164 
	C691.388550,397.384857 688.120117,394.044891 682.868713,393.966949 
	C671.913879,393.804352 660.953979,393.981323 649.067200,393.885162 
	C640.001160,393.885162 630.935120,393.885162 621.139893,393.885162 
	C621.139893,388.511932 621.139893,383.753906 621.320801,378.073761 
	C621.320801,370.526703 621.320801,362.979675 621.320801,355.150055 
	C626.156189,354.925598 630.070801,354.743896 634.896667,354.810791 
	C649.936829,354.838715 664.976990,354.866608 680.670898,355.378052 
	C682.651062,355.473907 684.630371,355.623993 686.611572,355.656616 
	C697.051636,355.828400 707.492126,355.970581 717.967224,356.835022 
	C718.362732,357.729248 718.667908,358.677765 719.167480,359.509430 
	C725.687927,370.363129 737.061523,375.138458 749.431702,372.248993 
	C760.334473,369.702271 769.388550,359.135651 769.724670,347.384705 
	C770.057190,335.759979 762.889648,324.514191 749.927490,320.585144 
	C738.273865,317.052795 724.770569,322.279572 719.508728,333.494812 
	C717.001587,338.838501 713.830261,338.651978 709.431519,338.598206 
	C698.292847,338.462067 687.150452,338.619324 675.111328,338.362122 
	C659.735291,338.397339 644.359314,338.432556 628.123840,338.239990 
	C625.579590,337.702240 621.881348,339.648071 621.552612,334.142761 
	C621.552612,322.726685 621.552612,311.310577 622.114807,299.706726 
	C622.404541,299.441223 622.694275,299.175720 623.861023,298.971619 
	C625.911377,298.952606 627.961670,298.933594 630.684937,299.357849 
	C635.456482,299.227539 640.228027,299.097260 645.934814,299.036011 
	C658.089478,299.049286 670.245056,299.157227 682.398315,299.032135 
	C687.732178,298.977264 691.038025,295.730133 690.929016,291.258820 
	C690.825134,286.997314 687.647156,284.023254 682.430176,283.994598 
	C665.953491,283.904053 649.475769,284.009796 632.103333,283.868988 
	C629.069336,283.911530 626.035278,283.954071 622.581665,283.610931 
	C622.230164,283.477783 621.878723,283.344635 621.622681,282.393616 
	C621.533936,281.588074 621.445190,280.782501 621.655457,279.091888 
	C621.727051,254.636719 621.870911,230.181396 621.825317,205.726440 
	C621.812012,198.584198 616.956665,193.046616 610.365906,193.003326 
	C589.244202,192.864609 568.120361,193.056168 546.074036,192.944183 
	C535.900696,192.944183 525.727356,192.944183 514.927368,192.944183 
	C514.927368,185.128372 514.927368,178.065033 515.099548,170.077148 
	C515.115784,159.756027 515.266724,149.432587 515.090332,139.114761 
	C515.004395,134.085571 511.695679,130.957764 507.375366,131.083527 
	C503.234467,131.204086 500.201904,134.189285 500.110413,139.058182 
	C499.941650,148.036774 500.143219,157.022308 500.003479,166.925079 
	C500.003479,175.439682 500.003479,183.954300 500.003479,193.133774 
	C492.106049,193.133774 485.050507,193.133774 477.072662,192.957413 
	C471.310211,192.957413 465.547791,192.957413 459.048767,192.957413 
	C459.048767,182.867493 459.048767,173.441254 459.382721,163.278976 
	C459.333252,150.958481 459.435455,138.634399 459.143890,126.319641 
	C459.053894,122.519005 459.973022,120.488609 463.669678,118.776596 
	C473.386322,114.276550 480.732941,101.307251 477.224060,88.139526 
	C474.408600,77.573830 463.354584,68.259323 452.259552,67.996147 
	C438.888214,67.678978 428.322113,76.078117 424.742188,89.870102 
	C421.875671,100.913612 428.017212,113.391563 439.386810,119.016312 
	C442.148285,120.382477 443.235504,121.893898 443.165161,125.050034 
	C442.987274,133.032059 443.254791,141.024017 443.166321,149.933105 
	C443.093475,164.238663 443.020599,178.544235 442.018005,192.886734 
	C428.800659,192.886734 415.583313,192.886734 401.781006,192.886734 
	C401.781006,179.507355 401.781006,166.764435 401.940887,153.094360 
	C401.950104,148.448441 402.080872,143.798691 401.934845,139.157654 
	C401.783508,134.346741 398.623566,130.999115 394.409668,130.831009 
	C390.386505,130.670532 387.000732,133.476151 386.420807,138.129272 
	C386.015442,141.381638 386.392914,144.731567 386.241089,148.952576 
	C386.277954,159.969925 386.314850,170.987259 386.181213,182.914383 
	C386.181213,186.152191 386.181213,189.389999 386.181213,192.593719 
	C372.910645,192.593719 360.533264,192.593719 347.205719,192.593719 
	C347.205719,181.530273 347.205719,170.788757 347.546570,159.157944 
	C347.454254,153.424606 347.361938,147.691269 347.595978,141.085968 
	C347.635925,135.780182 347.846954,130.468018 347.649567,125.171074 
	C347.537048,122.150574 348.388336,120.550201 351.286163,119.132904 
	C359.215912,115.254532 364.812927,109.290779 366.092133,99.243721 
	C366.378235,97.791336 366.967987,96.325478 366.904266,94.888596 
	C366.105164,76.864601 349.579712,65.210701 334.338806,68.886932 
	C320.420990,72.244019 310.831909,85.577240 313.708160,99.900826 
	C314.690460,107.871590 319.049438,113.927856 325.739929,117.655884 
	C329.948608,120.001030 331.975800,122.359917 331.128693,127.075363 
	C330.960449,128.011719 331.280975,129.035858 331.196136,130.938950 
	C331.272980,139.965591 331.349823,148.992218 331.223785,158.931656 
	C331.297089,168.955917 331.370361,178.980194 331.228760,189.844345 
	C330.467804,190.865967 329.720215,192.766022 328.943909,192.777863 
	C316.667603,192.964752 304.387573,192.909210 291.159851,192.909210 
	C291.159851,185.584930 291.159851,178.814392 291.489929,171.153442 
	C291.537201,160.699005 291.727142,150.242477 291.573334,139.791000 
	C291.492889,134.323807 288.347076,131.057297 283.969330,131.067749 
	C279.438690,131.078568 276.317413,134.241104 276.247375,139.662308 
	C276.112366,150.107651 276.298340,160.557144 276.150330,171.920700 
	C276.039032,178.914429 275.927734,185.908173 274.905090,192.916122 
	C249.268845,192.998535 223.632599,193.080948 197.337402,192.817993 
	C193.413452,192.908157 189.486664,192.932877 185.566162,193.102463 
	C178.015869,193.429031 175.201294,196.271332 174.357834,204.733322 
	C174.303452,208.491623 174.249069,212.249939 174.045105,216.926407 
	C174.099030,221.286530 174.152954,225.646667 174.052078,230.931412 
	C174.095764,237.283813 174.139450,243.636215 174.016129,250.906723 
	C174.071030,255.275131 174.125916,259.643524 174.038559,264.937622 
	C174.054550,271.061615 174.070526,277.185577 173.173523,283.608948 
	C154.915741,283.580231 136.657944,283.535126 118.400200,283.548584 
	C116.615997,283.549896 114.832054,283.911865 112.314186,284.044556 
	C108.038521,285.179413 105.651436,287.860077 106.252998,292.368561 
	C106.823692,296.645752 109.930580,298.442535 113.909531,298.929962 
	C115.220566,299.090607 116.563293,299.007599 117.891586,299.009979 
	C134.667740,299.040314 151.443909,299.066223 168.220078,299.092407 
	C170.000259,299.095184 171.780426,299.092773 173.756546,299.092773 
	C173.923386,302.099304 174.059433,304.551178 174.037170,307.927887 
	C174.037170,317.515045 174.037170,327.102234 174.037170,337.325043 
	C162.219528,337.325043 151.105911,337.325043 139.076218,337.117859 
	C129.046005,337.173523 119.015800,337.229156 108.072273,337.072327 
	C102.298210,337.034973 96.512268,336.762177 90.754745,337.052643 
	C87.534996,337.215088 86.166672,335.982635 84.242195,333.466278 
	C81.157166,329.432434 76.850998,326.332520 72.552727,322.359650 
	C67.932449,321.362762 63.189392,319.139282 58.713745,319.587280 
	C41.852879,321.275024 30.807678,337.409882 35.033367,353.444763 
	C37.775501,363.850067 47.602085,372.078766 59.625511,373.462006 
	C68.158859,374.443726 79.068062,368.505920 83.819855,360.192810 
	C85.621628,354.306000 89.400803,352.369141 95.586479,353.062317 
	C101.316711,353.704498 107.190292,353.067444 113.922043,353.182281 
	C125.281532,353.121399 136.641022,353.060516 148.921402,353.191528 
	C157.128815,353.191528 165.336227,353.191528 174.193375,353.191528 
	C174.193375,361.913361 174.193375,369.957947 174.036850,378.925598 
	C174.036850,383.815033 174.036850,388.704437 174.036850,394.042419 
	C164.168762,394.042419 155.081802,394.042419 145.070892,393.876221 
	C134.941574,393.853302 124.811569,393.751923 114.683197,393.839417 
	C109.365486,393.885406 106.063019,396.884521 105.908409,401.376099 
	C105.755745,405.811127 108.921112,409.359802 114.201515,409.425751 
	C127.798462,409.595642 141.400726,409.339905 155.884415,409.565033 
	C161.864670,409.565033 167.844910,409.565033 173.795120,409.565033 
	C173.967911,412.541840 174.090805,414.658783 174.070496,417.644226 
	C174.112366,427.097473 174.154236,436.550690 174.025284,446.827637 
	C172.629211,447.479034 171.248734,448.653595 169.834503,448.695709 
	C161.559540,448.942291 153.276672,448.923889 144.074387,448.812805 
	C127.592949,448.759918 111.110680,448.602509 94.630699,448.733276 
	C90.876099,448.763031 88.761177,447.823273 86.930687,444.223083 
	C80.704933,431.978302 66.652679,426.951416 54.020672,431.445404 
	C42.857002,435.416962 33.403351,450.100464 37.065346,462.921082 
	C40.176037,473.811554 48.865845,482.503143 61.395771,483.768585 
	C71.600288,484.799133 81.740814,479.443115 86.949265,469.182587 
	C88.690559,465.752258 90.520462,464.792542 94.066940,464.805695 
	C113.706047,464.878662 133.345932,464.741211 153.908600,464.861115 
	C160.495819,464.861115 167.083054,464.861115 174.193497,464.861115 
	C174.193497,470.081360 174.193497,474.543396 174.035217,479.930023 
	C174.023407,487.856537 173.826477,495.789185 174.088547,503.706635 
	C174.197372,506.994385 173.016525,508.163422 169.082672,507.845825 
	C163.388443,507.897217 157.694229,507.948608 151.261093,507.676514 
	C147.108978,507.626740 142.955856,507.493530 138.804977,507.544434 
	C130.205673,507.649933 121.607552,507.853333 112.270020,507.940674 
	C107.993454,509.102875 105.556015,511.823395 106.290108,516.309631 
	C107.017517,520.755005 110.408554,522.473694 114.587852,522.825684 
	C115.909523,522.936951 117.246643,522.869629 118.576721,522.875793 
	C137.031021,522.961304 155.485306,523.045288 173.967224,523.989136 
	C174.043137,525.994446 174.119034,527.999817 174.035950,530.929626 
	C174.021683,552.904114 174.049149,574.878784 173.933823,596.852722 
	C173.921158,599.266418 173.482132,601.835571 172.576569,604.062561 
	C163.063370,627.457581 153.413651,650.797058 143.804413,674.153076 
	C141.019180,680.922791 138.106171,687.644104 135.505173,694.484070 
	C133.406021,700.004272 134.751160,705.091553 138.768021,708.587585 
	C143.230087,712.471313 148.060791,713.050537 153.536575,710.105286 
	C156.901520,708.295410 160.150940,706.260803 163.388962,704.226318 
	C192.543686,685.908508 221.695099,667.585205 250.825089,649.228027 
	C267.270386,638.864380 283.673676,628.434143 300.775940,617.900574 
	C305.524231,613.953430 310.988922,612.923279 317.060150,613.290894 
	C323.035767,613.652771 329.050873,613.380981 335.048553,613.357056 
	C358.365723,613.263977 381.682831,613.158997 405.917816,613.269958 
	C420.610260,613.188599 435.302704,613.107300 450.914124,613.236877 
	C461.607391,613.167847 472.300690,613.098877 483.348480,613.292236 
	C483.901306,613.204651 484.454102,613.117004 485.827057,613.205322 
	C487.216522,613.139771 488.605988,613.074158 490.888763,613.195129 
	C493.924377,613.137390 496.959961,613.079590 500.353180,613.274780 
	C500.903046,613.188477 501.452911,613.102173 502.659607,613.193359 
	C503.105225,613.132690 503.550812,613.072021 504.743347,613.311523 
	C505.905365,613.341675 507.067291,613.396240 508.229370,613.398499 
	C541.461121,613.463562 574.692871,613.525208 607.924622,613.582458 
	C613.867432,613.592651 618.795471,610.999329 620.007202,605.249939 
	C621.246338,599.370422 620.632874,593.100464 621.029724,586.081970 
	C621.029724,565.200806 621.029724,544.319702 621.029724,523.152649 
	C624.785095,522.959412 627.885498,522.799927 631.904114,522.850891 
	C641.933655,522.816162 651.963196,522.781372 662.913574,522.935913 
	C669.570374,522.939026 676.232422,523.105103 682.882263,522.891418 
	C687.812988,522.733032 690.996765,519.414978 690.939209,515.123474 
	C690.885010,511.082764 687.772522,508.015106 682.957825,507.914948 
	C675.313843,507.755890 667.662720,507.940857 659.089600,507.798676 
	C648.738892,507.830933 638.388184,507.863220 627.353333,507.557800 
	C625.250732,507.342590 623.148071,507.127350 621.147705,505.991730 
	C621.176025,494.006805 621.219788,482.021912 621.217529,470.036987 
	C621.217163,467.995239 620.935608,465.894989 624.923157,466.279327 
	C632.284668,466.249268 639.646179,466.219177 647.772400,466.483398 
	C656.182861,466.451294 664.593384,466.419189 673.898010,466.666870 
	C682.586426,466.629059 691.274902,466.591278 700.882507,466.773895 
	C703.029419,466.800568 705.176514,466.821259 707.323303,466.855011 
	C713.470215,466.951721 720.413635,465.120758 723.106873,473.519562 
	C723.316040,474.171967 724.319336,474.569733 725.245850,475.689087 
	C730.629517,482.503784 743.519531,486.177948 753.427063,482.040833 
	C763.455200,477.853302 770.823425,467.928040 771.036804,457.769806 
	C771.327576,443.928589 761.245789,431.848999 747.751892,429.870728 
	C734.593872,427.941711 721.894775,436.507477 717.049988,450.095642 
	C709.694153,450.135376 702.338257,450.175110 694.062317,450.039154 
	C685.041565,450.076355 676.020874,450.113556 666.149536,449.980835 
	C664.419800,450.021484 662.690063,450.062134 660.530884,449.804169 
	C659.700439,449.899780 658.870056,449.995392 657.108032,449.948120 
z"/>
<path fill="#1C57E2" opacity="1.000000" stroke="none" 
	d="
M300.095886,618.033936 
	C283.673676,628.434143 267.270386,638.864380 250.825089,649.228027 
	C221.695099,667.585205 192.543686,685.908508 163.388962,704.226318 
	C160.150940,706.260803 156.901520,708.295410 153.536575,710.105286 
	C148.060791,713.050537 143.230087,712.471313 138.768021,708.587585 
	C134.751160,705.091553 133.406021,700.004272 135.505173,694.484070 
	C138.106171,687.644104 141.019180,680.922791 143.804413,674.153076 
	C153.413651,650.797058 163.063370,627.457581 172.576569,604.062561 
	C173.482132,601.835571 173.921158,599.266418 173.933823,596.852722 
	C174.049149,574.878784 174.021683,552.904114 174.470673,530.475708 
	C175.986008,531.123718 177.370987,532.056335 178.094757,533.356812 
	C181.304642,539.124695 183.876160,545.302185 187.558136,550.735474 
	C190.412064,554.946838 194.568207,558.275696 198.248367,562.456604 
	C198.442520,573.231445 198.864151,583.558167 198.501846,593.857361 
	C198.282654,600.088623 197.928360,606.686462 195.759521,612.408875 
	C188.938889,630.404968 181.226303,648.062866 173.883087,665.861572 
	C173.564819,666.632996 173.484375,667.502563 173.121109,669.067627 
	C176.626480,666.894043 179.457047,665.170044 182.257095,663.397644 
	C210.484329,645.529968 238.706589,627.654419 266.962524,610.207642 
	C268.168671,611.421936 269.258575,612.674194 270.533142,612.904480 
	C273.589325,613.456604 276.777924,613.281311 279.830933,613.844727 
	C286.612671,615.096313 293.344025,616.620728 300.095886,618.033936 
z"/>
<path fill="#1E7EF0" opacity="1.000000" stroke="none" 
	d="
M139.992294,337.325043 
	C151.105911,337.325043 162.219528,337.325043 174.037170,337.325043 
	C174.037170,327.102234 174.037170,317.515045 174.494553,307.464050 
	C177.236557,305.846283 179.770615,305.011108 181.747559,303.464020 
	C184.740784,301.121643 187.423279,299.027649 191.631760,300.579559 
	C192.585663,300.931305 194.352554,299.402924 195.599365,298.531342 
	C196.566315,297.855377 197.306030,296.854370 198.242874,296.458771 
	C198.339005,310.175690 198.339005,323.431671 198.339005,336.768677 
	C204.526627,336.768677 209.760834,336.768677 215.363266,336.768677 
	C215.363266,334.292267 215.349625,332.149323 215.365417,330.006592 
	C215.497864,312.025635 215.635712,294.044678 216.107758,276.043701 
	C218.326614,276.897430 221.106598,277.273041 221.921356,278.740082 
	C224.198151,282.839722 227.549271,283.343903 231.625763,283.492554 
	C231.737808,317.652039 231.742844,351.358673 231.723618,385.065338 
	C231.723068,386.042419 231.465637,387.019409 230.953583,388.000061 
	C226.613983,387.560120 222.301117,385.458160 219.738708,390.910980 
	C219.356232,391.724823 217.086914,391.651978 215.580994,391.531128 
	C215.471481,378.661713 215.471481,366.250488 215.471481,353.749542 
	C209.484451,353.749542 204.128525,353.749542 198.140671,353.749542 
	C198.140671,362.771393 198.140671,371.383789 197.759338,380.000702 
	C195.042633,381.765533 192.707245,383.525879 189.500687,385.942871 
	C188.357910,383.573273 187.036407,380.833099 184.870575,376.342163 
	C183.901581,382.667114 181.547638,380.652222 179.206680,379.585449 
	C177.623856,378.864136 175.870468,378.517029 174.193375,378.002533 
	C174.193375,369.957947 174.193375,361.913361 174.193375,353.191528 
	C165.336227,353.191528 157.128815,353.191528 148.461121,352.694550 
	C146.933380,349.954987 145.959534,347.661499 144.774902,345.482635 
	C143.270081,342.714813 141.594345,340.039978 139.992294,337.325043 
z"/>
<path fill="#24AAF7" opacity="1.000000" stroke="none" 
	d="
M291.159851,172.043823 
	C291.159851,178.814392 291.159851,185.584930 291.159851,192.909210 
	C304.387573,192.909210 316.667603,192.964752 328.943909,192.777863 
	C329.720215,192.766022 330.467804,190.865967 331.732178,189.422699 
	C335.040863,189.728027 338.208252,189.865494 340.569183,191.315811 
	C344.412964,193.677032 347.650146,197.002350 351.286743,199.729553 
	C357.412598,204.323563 361.708160,211.329605 369.657043,213.603165 
	C370.373138,213.807968 370.566376,215.840836 370.541565,217.117737 
	C362.811798,217.210754 355.542908,217.210754 347.969055,217.210754 
	C347.969055,223.613266 347.969055,229.157684 347.969055,235.684509 
	C357.167053,235.684509 366.073273,235.684509 375.005615,236.030075 
	C375.265808,238.907562 375.499847,241.439468 375.812347,244.820145 
	C377.922485,245.667206 380.868500,246.637314 383.595184,248.035202 
	C384.932190,248.720642 385.862091,250.200195 386.532288,251.464325 
	C370.002472,251.644516 353.916504,251.726105 337.830750,251.697083 
	C330.218964,251.683350 322.607574,251.457977 314.991974,250.983490 
	C313.324768,245.653412 311.661591,240.668335 310.441895,235.531845 
	C317.486176,235.380417 324.086975,235.380417 330.801422,235.380417 
	C330.801422,229.038361 330.801422,223.488785 330.801422,217.133835 
	C324.952667,217.133835 319.478180,217.133835 313.997406,216.741684 
	C313.762390,215.575470 313.660553,214.196457 313.285919,214.117889 
	C307.477417,212.899368 305.817108,207.779587 302.996674,203.661255 
	C301.785767,201.893082 300.133575,199.625320 297.413574,202.366791 
	C297.048309,202.734924 295.224945,201.908737 294.235718,201.352768 
	C292.200500,200.208908 290.392792,198.598251 288.275238,197.676132 
	C284.201782,195.902267 279.977905,194.473694 275.816437,192.901901 
	C275.927734,185.908173 276.039032,178.914429 276.639893,171.462616 
	C281.806244,171.350967 286.483063,171.697403 291.159851,172.043823 
z"/>
<path fill="#30D5F7" opacity="1.000000" stroke="none" 
	d="
M546.997314,193.120285 
	C568.120361,193.056168 589.244202,192.864609 610.365906,193.003326 
	C616.956665,193.046616 621.812012,198.584198 621.825317,205.726440 
	C621.870911,230.181396 621.727051,254.636719 621.187744,279.464142 
	C617.288452,278.325867 613.948730,276.533752 610.401855,275.377014 
	C606.100098,273.974030 601.623413,273.107483 597.124390,271.548126 
	C597.026428,253.218124 597.026428,235.348846 597.026428,216.837021 
	C584.863586,216.837021 573.430237,216.837021 561.996704,216.464172 
	C561.509399,214.742950 561.328918,213.147385 560.478088,212.092346 
	C557.885376,208.877274 554.773376,206.059387 552.361938,202.726242 
	C550.226868,199.775192 548.759460,196.341125 546.997314,193.120285 
z"/>
<path fill="#26C7F7" opacity="1.000000" stroke="none" 
	d="
M621.229919,335.036743 
	C621.881348,339.648071 625.579590,337.702240 628.567261,338.689209 
	C632.184998,343.790710 635.400146,348.429810 633.985474,354.562195 
	C630.070801,354.743896 626.156189,354.925598 621.320801,355.150055 
	C621.320801,362.979675 621.320801,370.526703 620.864990,378.505493 
	C616.942444,376.794434 613.598022,374.411041 609.976990,372.572205 
	C605.824768,370.463562 601.427246,368.837891 597.046509,366.545532 
	C596.956726,362.354340 596.956726,358.620026 596.956726,354.898468 
	C591.181885,354.898468 586.133545,354.898468 581.085205,354.898468 
	C580.770813,359.102570 580.457031,363.306763 580.139648,367.510620 
	C580.127319,367.674225 580.080139,367.835236 579.695190,367.964783 
	C575.098755,363.865173 570.532715,360.410736 564.258545,359.552185 
	C564.210144,328.745819 564.255249,298.399872 564.662720,268.048157 
	C565.668640,268.179535 566.394775,268.169495 566.942505,268.477142 
	C571.354980,270.955566 575.733826,273.493805 580.175354,276.479309 
	C580.227722,297.160950 580.227722,317.377014 580.227722,337.726990 
	C586.118774,337.726990 591.313599,337.726990 597.178711,337.726990 
	C597.178711,331.562988 597.178711,325.782471 597.559326,320.002808 
	C599.963623,321.336853 602.672485,322.223145 603.886597,324.084442 
	C608.065796,330.491302 613.168152,334.982910 621.229919,335.036743 
z"/>
<path fill="#2092F5" opacity="1.000000" stroke="none" 
	d="
M620.830322,587.001404 
	C620.632874,593.100464 621.246338,599.370422 620.007202,605.249939 
	C618.795471,610.999329 613.867432,613.592651 607.924622,613.582458 
	C574.692871,613.525208 541.461121,613.463562 508.229370,613.398499 
	C507.067291,613.396240 505.905365,613.341675 504.543884,612.919434 
	C515.384827,612.349792 526.426697,612.226196 537.463257,611.914795 
	C538.617493,611.882202 539.740417,610.738953 540.877869,610.111023 
	C540.093323,609.177429 539.494324,607.786987 538.495422,607.381287 
	C529.027588,603.535950 523.720520,594.697021 516.332520,588.653809 
	C543.214478,588.483643 569.727295,588.483643 597.037537,588.483643 
	C597.037537,577.150940 597.037537,566.575500 597.400879,556.004333 
	C599.501709,557.164856 601.330444,558.206421 602.957642,559.501038 
	C606.365234,562.212219 608.583862,565.084473 604.911743,569.444946 
	C603.200806,571.476685 603.937988,573.401733 606.283752,575.287231 
	C610.565125,578.728516 616.376465,580.577393 618.550293,586.417236 
	C618.706421,586.836731 620.042786,586.816956 620.830322,587.001404 
z"/>
<path fill="#26BBF7" opacity="1.000000" stroke="none" 
	d="
M386.351715,182.004608 
	C386.314850,170.987259 386.277954,159.969925 386.701294,148.486160 
	C388.937622,148.663055 390.742584,149.237305 392.483490,149.964813 
	C395.602997,151.268417 398.683929,152.664246 401.781006,154.021515 
	C401.781006,166.764435 401.781006,179.507355 401.781006,192.886734 
	C415.583313,192.886734 428.800659,192.886734 442.498047,193.309753 
	C442.530792,199.135239 443.925446,203.488251 449.340515,205.925690 
	C452.905762,207.530502 454.694397,210.452026 455.433533,214.400848 
	C455.750916,216.096756 457.763367,217.475388 459.092773,219.459183 
	C459.179871,224.837921 459.179871,229.755646 459.179871,234.945465 
	C463.836304,235.215118 467.903748,235.450653 471.982544,236.021240 
	C473.883698,239.292084 475.830933,242.192993 477.643158,245.175934 
	C478.851379,247.164734 479.867157,249.270447 480.525177,251.466064 
	C464.389435,251.511368 448.697571,251.414474 432.999359,250.975555 
	C431.998199,245.651047 431.003387,240.668533 430.449554,235.535995 
	C434.819519,235.385956 438.748505,235.385956 442.740417,235.385956 
	C442.740417,228.923981 442.740417,223.235443 442.740417,216.975571 
	C432.223328,216.975571 422.112396,216.975571 411.995697,216.606293 
	C408.132202,209.522446 404.299408,202.793152 400.376221,196.117020 
	C400.002319,195.480774 398.940216,195.287613 398.408630,194.698349 
	C396.545990,192.633606 394.861023,190.404510 392.947693,188.390686 
	C390.841675,186.173981 388.558014,184.126068 386.351715,182.004608 
z"/>
<path fill="#1B5AE9" opacity="1.000000" stroke="none" 
	d="
M300.435913,617.967285 
	C293.344025,616.620728 286.612671,615.096313 279.830933,613.844727 
	C276.777924,613.281311 273.589325,613.456604 270.533142,612.904480 
	C269.258575,612.674194 268.168671,611.421936 267.135925,609.927307 
	C276.688019,602.955627 286.073242,596.651550 295.539551,590.471619 
	C296.865112,589.606201 298.587189,588.886841 300.127747,588.882874 
	C317.749969,588.837341 335.372528,588.943604 353.045715,589.343262 
	C354.065887,589.451477 355.035400,589.225769 356.397736,588.903442 
	C357.859161,588.870056 358.927765,588.933350 360.032959,589.351624 
	C362.339569,591.414734 364.369507,593.885559 366.924042,594.689453 
	C374.911194,597.203003 383.217163,598.720215 391.165314,601.335388 
	C397.142517,603.302124 402.554169,606.603333 404.999969,613.058411 
	C381.682831,613.158997 358.365723,613.263977 335.048553,613.357056 
	C329.050873,613.380981 323.035767,613.652771 317.060150,613.290894 
	C310.988922,612.923279 305.524231,613.953430 300.435913,617.967285 
z"/>
<path fill="#1E59E3" opacity="1.000000" stroke="none" 
	d="
M152.985550,464.675812 
	C133.345932,464.741211 113.706047,464.878662 94.066940,464.805695 
	C90.520462,464.792542 88.690559,465.752258 86.949265,469.182587 
	C81.740814,479.443115 71.600288,484.799133 61.395771,483.768585 
	C48.865845,482.503143 40.176037,473.811554 37.065346,462.921082 
	C33.403351,450.100464 42.857002,435.416962 54.020672,431.445404 
	C66.652679,426.951416 80.704933,431.978302 86.930687,444.223083 
	C88.761177,447.823273 90.876099,448.763031 94.630699,448.733276 
	C111.110680,448.602509 127.592949,448.759918 144.541916,449.277710 
	C146.474258,452.458649 147.946808,455.170593 149.401520,457.892059 
	C150.607117,460.147491 151.791672,462.414124 152.985550,464.675812 
M48.530857,454.108032 
	C47.588108,463.020477 53.346432,470.699097 61.937138,471.985077 
	C69.436989,473.107758 77.442345,467.273682 78.782349,459.708771 
	C80.299995,451.141052 75.302933,443.320404 67.176819,441.545532 
	C58.793522,439.714478 51.227074,444.553955 48.530857,454.108032 
z"/>
<path fill="#30D5F7" opacity="1.000000" stroke="none" 
	d="
M443.343872,149.011993 
	C443.254791,141.024017 442.987274,133.032059 443.165161,125.050034 
	C443.235504,121.893898 442.148285,120.382477 439.386810,119.016312 
	C428.017212,113.391563 421.875671,100.913612 424.742188,89.870102 
	C428.322113,76.078117 438.888214,67.678978 452.259552,67.996147 
	C463.354584,68.259323 474.408600,77.573830 477.224060,88.139526 
	C480.732941,101.307251 473.386322,114.276550 463.669678,118.776596 
	C459.973022,120.488609 459.053894,122.519005 459.143890,126.319641 
	C459.435455,138.634399 459.333252,150.958481 458.870422,163.594452 
	C456.911682,161.950012 455.709412,159.731735 453.966888,158.085190 
	C450.586426,154.890930 446.902222,152.018051 443.343872,149.011993 
M447.478546,79.768227 
	C438.034393,82.927834 433.472717,91.372635 436.606781,99.894676 
	C439.492645,107.741806 447.462250,111.734451 455.479706,109.349739 
	C462.934357,107.132423 467.780487,99.281075 466.184174,92.007133 
	C464.217438,83.045326 457.415680,78.353874 447.478546,79.768227 
z"/>
<path fill="#2DD2F7" opacity="1.000000" stroke="none" 
	d="
M546.535645,193.032227 
	C548.759460,196.341125 550.226868,199.775192 552.361938,202.726242 
	C554.773376,206.059387 557.885376,208.877274 560.478088,212.092346 
	C561.328918,213.147385 561.509399,214.742950 561.535400,216.554459 
	C538.048767,216.973526 515.023132,216.929474 491.991608,216.523438 
	C491.400024,215.020203 490.934448,213.795151 490.206879,212.752960 
	C487.707397,209.172592 485.113739,205.658005 482.561401,202.114471 
	C481.692810,200.908585 480.670868,199.774597 480.022552,198.458267 
	C479.187103,196.762039 478.656738,194.915543 477.994995,193.133774 
	C485.050507,193.133774 492.106049,193.133774 500.003479,193.133774 
	C500.003479,183.954300 500.003479,175.439682 500.475769,166.464951 
	C502.628448,166.501328 504.340790,166.910751 505.982239,167.513290 
	C508.986084,168.615875 511.947968,169.832581 514.927368,171.001694 
	C514.927368,178.065033 514.927368,185.128372 514.927368,192.944183 
	C525.727356,192.944183 535.900696,192.944183 546.535645,193.032227 
z"/>
<path fill="#2DD2F7" opacity="1.000000" stroke="none" 
	d="
M676.009583,338.659058 
	C687.150452,338.619324 698.292847,338.462067 709.431519,338.598206 
	C713.830261,338.651978 717.001587,338.838501 719.508728,333.494812 
	C724.770569,322.279572 738.273865,317.052795 749.927490,320.585144 
	C762.889648,324.514191 770.057190,335.759979 769.724670,347.384705 
	C769.388550,359.135651 760.334473,369.702271 749.431702,372.248993 
	C737.061523,375.138458 725.687927,370.363129 719.167480,359.509430 
	C718.667908,358.677765 718.362732,357.729248 717.829651,356.092896 
	C716.017212,354.919281 714.348389,354.143707 712.666504,354.114532 
	C704.446655,353.971893 696.223267,354.028320 687.942993,353.655640 
	C687.029724,352.613251 686.278442,351.636383 685.303528,351.291473 
	C676.007690,348.002808 675.996826,348.033569 676.009583,338.659058 
M758.540955,342.410706 
	C757.943481,341.039825 757.494019,339.578979 756.724365,338.312744 
	C751.842407,330.281616 741.303284,328.178986 733.651489,333.365051 
	C725.391174,338.963593 725.671631,350.809692 729.973633,356.156586 
	C733.956482,361.106964 742.339966,363.413513 748.469116,361.084473 
	C756.040405,358.207397 759.456787,352.280273 758.540955,342.410706 
z"/>
<path fill="#1E99F6" opacity="1.000000" stroke="none" 
	d="
M620.930054,586.541687 
	C620.042786,586.816956 618.706421,586.836731 618.550293,586.417236 
	C616.376465,580.577393 610.565125,578.728516 606.283752,575.287231 
	C603.937988,573.401733 603.200806,571.476685 604.911743,569.444946 
	C608.583862,565.084473 606.365234,562.212219 602.957642,559.501038 
	C601.330444,558.206421 599.501709,557.164856 597.309021,555.543091 
	C596.920471,531.051575 596.987244,507.025635 597.425049,483.005493 
	C605.916809,485.395050 612.210693,493.035065 613.012878,501.482544 
	C613.515747,506.777954 615.940857,508.417206 621.045471,506.912109 
	C623.148071,507.127350 625.250732,507.342590 627.683289,508.164917 
	C629.004150,513.394836 629.995056,518.017578 630.985962,522.640381 
	C627.885498,522.799927 624.785095,522.959412 621.029724,523.152649 
	C621.029724,544.319702 621.029724,565.200806 620.930054,586.541687 
z"/>
<path fill="#1E83F0" opacity="1.000000" stroke="none" 
	d="
M198.146759,295.997864 
	C197.306030,296.854370 196.566315,297.855377 195.599365,298.531342 
	C194.352554,299.402924 192.585663,300.931305 191.631760,300.579559 
	C187.423279,299.027649 184.740784,301.121643 181.747559,303.464020 
	C179.770615,305.011108 177.236557,305.846283 174.573715,307.001617 
	C174.059433,304.551178 173.923386,302.099304 173.756546,299.092773 
	C171.780426,299.092773 170.000259,299.095184 168.220078,299.092407 
	C151.443909,299.066223 134.667740,299.040314 117.891586,299.009979 
	C116.563293,299.007599 115.220566,299.090607 113.909531,298.929962 
	C109.930580,298.442535 106.823692,296.645752 106.252998,292.368561 
	C105.651436,287.860077 108.038521,285.179413 112.984741,284.352478 
	C132.913986,284.772552 152.172668,284.907288 171.431442,284.924652 
	C172.315979,284.925476 173.201462,283.872009 174.086517,283.309570 
	C174.070526,277.185577 174.054550,271.061615 174.485962,264.470642 
	C176.432434,263.440643 177.936600,262.890778 179.429703,262.312347 
	C185.680084,259.890869 191.927170,257.460815 198.258026,255.494720 
	C198.275970,269.302979 198.211365,282.650421 198.146759,295.997864 
z"/>
<path fill="#1D6EEE" opacity="1.000000" stroke="none" 
	d="
M174.196106,446.003937 
	C174.154236,436.550690 174.112366,427.097473 174.569061,417.278778 
	C176.756165,417.819763 178.901611,418.339630 180.053040,419.700531 
	C184.675293,425.163696 190.878906,429.293365 193.814819,436.244507 
	C194.361572,437.539032 196.651932,438.097107 198.231873,439.439850 
	C198.326157,442.787781 198.326157,445.690918 198.326157,448.555603 
	C204.366409,448.555603 209.467819,448.555603 214.880783,448.555603 
	C215.085983,445.214447 215.276413,442.113434 215.837677,439.010223 
	C221.229782,440.014862 226.251068,441.021729 231.427307,442.468689 
	C231.610596,450.870270 231.711670,458.832306 231.649506,466.793030 
	C231.565491,477.551666 231.356049,488.309326 230.830536,499.020630 
	C228.268951,496.896790 226.160522,494.721924 223.864182,492.767853 
	C221.101105,490.416626 218.178223,488.253113 215.211975,485.551880 
	C215.099442,478.532745 215.099442,471.970154 215.099442,464.584381 
	C208.885651,465.106537 203.545258,465.555267 197.833817,465.975250 
	C195.529266,465.006897 193.183563,464.483765 191.737137,463.052094 
	C186.778610,458.144043 182.171387,452.882843 177.336807,447.845978 
	C176.528091,447.003357 175.254761,446.606659 174.196106,446.003937 
z"/>
<path fill="#20B4F7" opacity="1.000000" stroke="none" 
	d="
M386.266479,182.459503 
	C388.558014,184.126068 390.841675,186.173981 392.947693,188.390686 
	C394.861023,190.404510 396.545990,192.633606 398.408630,194.698349 
	C398.940216,195.287613 400.002319,195.480774 400.376221,196.117020 
	C404.299408,202.793152 408.132202,209.522446 411.533691,216.695160 
	C397.719086,217.110443 384.360748,217.067596 371.002441,217.024734 
	C370.566376,215.840836 370.373138,213.807968 369.657043,213.603165 
	C361.708160,211.329605 357.412598,204.323563 351.286743,199.729553 
	C347.650146,197.002350 344.412964,193.677032 340.569183,191.315811 
	C338.208252,189.865494 335.040863,189.728027 331.839600,189.002747 
	C331.370361,178.980194 331.297089,168.955917 331.695923,158.469589 
	C335.270233,158.335617 338.379211,158.611420 341.472198,159.011017 
	C343.395874,159.259521 345.295380,159.695419 347.205719,160.047241 
	C347.205719,170.788757 347.205719,181.530273 347.205719,192.593719 
	C360.533264,192.593719 372.910645,192.593719 386.181213,192.593719 
	C386.181213,189.389999 386.181213,186.152191 386.266479,182.459503 
z"/>
<path fill="#24A3F5" opacity="1.000000" stroke="none" 
	d="
M275.360779,192.909012 
	C279.977905,194.473694 284.201782,195.902267 288.275238,197.676132 
	C290.392792,198.598251 292.200500,200.208908 294.235718,201.352768 
	C295.224945,201.908737 297.048309,202.734924 297.413574,202.366791 
	C300.133575,199.625320 301.785767,201.893082 302.996674,203.661255 
	C305.817108,207.779587 307.477417,212.899368 313.285919,214.117889 
	C313.660553,214.196457 313.762390,215.575470 313.539429,216.827576 
	C300.055084,217.364105 287.022400,217.422623 273.987732,217.127777 
	C272.856384,215.113373 272.103180,212.782562 270.535431,211.902176 
	C261.695984,206.938309 252.632370,202.647446 242.025116,202.906052 
	C236.932526,203.030197 231.658218,202.812454 226.742493,201.615173 
	C216.181198,199.042862 207.181030,204.961349 197.376450,206.356491 
	C190.338791,207.357925 183.431168,210.028214 178.016800,215.352539 
	C177.259827,216.096924 175.493683,215.815048 174.194672,216.008240 
	C174.249069,212.249939 174.303452,208.491623 174.914764,204.359375 
	C180.994858,202.150192 186.541153,200.380814 192.031158,198.451279 
	C194.678314,197.520874 198.231277,197.422256 197.996353,193.163361 
	C223.632599,193.080948 249.268845,192.998535 275.360779,192.909012 
z"/>
<path fill="#21A3F7" opacity="1.000000" stroke="none" 
	d="
M621.096558,506.451904 
	C615.940857,508.417206 613.515747,506.777954 613.012878,501.482544 
	C612.210693,493.035065 605.916809,485.395050 597.332397,482.545288 
	C596.868652,476.980865 596.868652,471.882416 596.868652,465.895569 
	C591.515747,465.895569 586.757080,465.895569 581.998047,465.499420 
	C581.632385,459.685333 579.596252,457.803711 574.494812,456.867157 
	C572.248352,456.454742 570.212463,454.782593 568.138855,453.582428 
	C566.817566,452.817688 565.602539,451.869446 564.250122,450.542908 
	C564.221191,442.389099 564.281921,434.695862 564.712158,427.002502 
	C566.737305,427.548431 568.432251,427.998535 570.040039,428.660553 
	C573.406677,430.046661 576.727295,431.544403 580.153442,433.458069 
	C580.240051,439.029877 580.240051,444.140015 580.240051,449.838104 
	C582.936707,449.838104 585.043945,449.836548 587.151245,449.838409 
	C596.449707,449.846527 596.449707,449.846863 597.441895,441.007019 
	C598.980103,442.233276 600.110352,443.496063 601.337158,444.656738 
	C602.565613,445.818939 603.716675,447.296631 605.201843,447.915283 
	C613.877258,451.528931 620.772705,456.875397 624.004700,466.075592 
	C620.935608,465.894989 621.217163,467.995239 621.217529,470.036987 
	C621.219788,482.021912 621.176025,494.006805 621.096558,506.451904 
z"/>
<path fill="#28CFF7" opacity="1.000000" stroke="none" 
	d="
M621.391235,334.589752 
	C613.168152,334.982910 608.065796,330.491302 603.886597,324.084442 
	C602.672485,322.223145 599.963623,321.336853 597.466980,319.541626 
	C597.070190,303.389404 597.146301,287.699127 597.222412,272.008850 
	C601.623413,273.107483 606.100098,273.974030 610.401855,275.377014 
	C613.948730,276.533752 617.288452,278.325867 621.038208,279.906677 
	C621.445190,280.782501 621.533936,281.588074 621.437012,282.998352 
	C621.834595,283.734253 622.417969,283.865448 623.001282,283.996613 
	C626.035278,283.954071 629.069336,283.911530 632.586670,284.298706 
	C635.619080,286.934998 638.100586,289.226593 640.737549,291.322601 
	C643.075562,293.180969 645.586365,294.822021 648.940002,297.214752 
	C646.705322,297.677582 645.807495,297.863556 644.453796,298.055298 
	C639.335938,298.345581 634.673950,298.630096 630.012024,298.914581 
	C627.961670,298.933594 625.911377,298.952606 623.273926,298.745789 
	C622.308777,298.978119 621.930725,299.436310 621.552612,299.894501 
	C621.552612,311.310577 621.552612,322.726685 621.391235,334.589752 
z"/>
<path fill="#1D77F0" opacity="1.000000" stroke="none" 
	d="
M198.137604,438.995056 
	C196.651932,438.097107 194.361572,437.539032 193.814819,436.244507 
	C190.878906,429.293365 184.675293,425.163696 180.053040,419.700531 
	C178.901611,418.339630 176.756165,417.819763 174.640656,416.844543 
	C174.090805,414.658783 173.967911,412.541840 173.795120,409.565033 
	C167.844910,409.565033 161.864670,409.565033 155.424454,409.094055 
	C153.552246,406.489746 152.077988,404.394379 150.743561,402.213470 
	C149.099777,399.527039 147.572479,396.769318 145.994858,394.042419 
	C155.081802,394.042419 164.168762,394.042419 174.036850,394.042419 
	C174.036850,388.704437 174.036850,383.815033 174.115112,378.464050 
	C175.870468,378.517029 177.623856,378.864136 179.206680,379.585449 
	C181.547638,380.652222 183.901581,382.667114 184.870575,376.342163 
	C187.036407,380.833099 188.357910,383.573273 189.500687,385.942871 
	C192.707245,383.525879 195.042633,381.765533 197.853088,380.462097 
	C198.264633,400.277710 198.201111,419.636383 198.137604,438.995056 
z"/>
<path fill="#26C7F7" opacity="1.000000" stroke="none" 
	d="
M477.533813,193.045593 
	C478.656738,194.915543 479.187103,196.762039 480.022552,198.458267 
	C480.670868,199.774597 481.692810,200.908585 482.561401,202.114471 
	C485.113739,205.658005 487.707397,209.172592 490.206879,212.752960 
	C490.934448,213.795151 491.400024,215.020203 491.529663,216.610535 
	C481.907715,217.088608 472.739960,217.033493 463.577606,217.229050 
	C462.041748,217.261826 460.529053,218.380981 459.005676,218.998169 
	C457.763367,217.475388 455.750916,216.096756 455.433533,214.400848 
	C454.694397,210.452026 452.905762,207.530502 449.340515,205.925690 
	C443.925446,203.488251 442.530792,199.135239 442.962921,193.291275 
	C443.020599,178.544235 443.093475,164.238663 443.255096,149.472549 
	C446.902222,152.018051 450.586426,154.890930 453.966888,158.085190 
	C455.709412,159.731735 456.911682,161.950012 458.703430,163.962463 
	C459.048767,173.441254 459.048767,182.867493 459.048767,192.957413 
	C465.547791,192.957413 471.310211,192.957413 477.533813,193.045593 
z"/>
<path fill="#33D3F7" opacity="1.000000" stroke="none" 
	d="
M717.976013,449.955048 
	C721.894775,436.507477 734.593872,427.941711 747.751892,429.870728 
	C761.245789,431.848999 771.327576,443.928589 771.036804,457.769806 
	C770.823425,467.928040 763.455200,477.853302 753.427063,482.040833 
	C743.519531,486.177948 730.629517,482.503784 725.256592,475.028748 
	C725.928833,465.307159 722.898010,457.348694 717.976013,449.955048 
M742.169617,441.398773 
	C740.903992,441.797424 739.592346,442.089386 738.380127,442.611969 
	C730.384949,446.058929 726.931946,454.554840 730.265320,462.464447 
	C733.583618,470.338257 742.789551,474.049927 750.615295,470.669159 
	C757.320923,467.772278 760.796509,460.892487 759.297729,453.482269 
	C757.709534,445.630341 751.853821,441.258179 742.169617,441.398773 
z"/>
<path fill="#1E99F6" opacity="1.000000" stroke="none" 
	d="
M174.119904,216.467316 
	C175.493683,215.815048 177.259827,216.096924 178.016800,215.352539 
	C183.431168,210.028214 190.338791,207.357925 197.376450,206.356491 
	C207.181030,204.961349 216.181198,199.042862 226.742493,201.615173 
	C231.658218,202.812454 236.932526,203.030197 242.025116,202.906052 
	C252.632370,202.647446 261.695984,206.938309 270.535431,211.902176 
	C272.103180,212.782562 272.856384,215.113373 273.522278,217.168518 
	C249.654480,217.611237 226.249741,217.739304 202.846252,217.621674 
	C199.389450,217.604324 197.948105,218.636078 197.738434,222.034454 
	C191.997223,224.164825 186.680542,226.348038 181.280548,228.300842 
	C179.013489,229.120682 176.570099,229.452881 174.206879,230.006775 
	C174.152954,225.646667 174.099030,221.286530 174.119904,216.467316 
z"/>
<path fill="#1B66EE" opacity="1.000000" stroke="none" 
	d="
M405.458893,613.164185 
	C402.554169,606.603333 397.142517,603.302124 391.165314,601.335388 
	C383.217163,598.720215 374.911194,597.203003 366.924042,594.689453 
	C364.369507,593.885559 362.339569,591.414734 360.492493,589.247314 
	C385.942719,588.837097 410.970032,588.886292 436.029327,589.288452 
	C440.425476,596.013489 444.857758,602.340881 449.089172,608.799866 
	C449.825592,609.923950 449.714691,611.603149 449.995148,613.025940 
	C435.302704,613.107300 420.610260,613.188599 405.458893,613.164185 
z"/>
<path fill="#1E5DE8" opacity="1.000000" stroke="none" 
	d="
M198.145508,561.996887 
	C194.568207,558.275696 190.412064,554.946838 187.558136,550.735474 
	C183.876160,545.302185 181.304642,539.124695 178.094757,533.356812 
	C177.370987,532.056335 175.986008,531.123718 174.550171,530.013428 
	C174.119034,527.999817 174.043137,525.994446 174.097382,523.221558 
	C174.063980,520.785461 174.186966,519.023010 173.676880,517.468140 
	C172.629410,514.275330 171.242920,511.193695 169.995987,508.066315 
	C173.016525,508.163422 174.197372,506.994385 174.088547,503.706635 
	C173.826477,495.789185 174.023407,487.856537 174.473511,479.473267 
	C179.611038,485.190186 184.225189,491.431274 189.041534,497.512207 
	C191.912781,501.137329 195.101486,504.511017 198.249023,508.457581 
	C198.282211,526.610596 198.213852,544.303772 198.145508,561.996887 
z"/>
<path fill="#1E64EB" opacity="1.000000" stroke="none" 
	d="
M198.147476,507.997711 
	C195.101486,504.511017 191.912781,501.137329 189.041534,497.512207 
	C184.225189,491.431274 179.611038,485.190186 174.552643,479.010986 
	C174.193497,474.543396 174.193497,470.081360 174.193497,464.861115 
	C167.083054,464.861115 160.495819,464.861115 153.447083,464.768463 
	C151.791672,462.414124 150.607117,460.147491 149.401520,457.892059 
	C147.946808,455.170593 146.474258,452.458649 145.002960,449.368744 
	C153.276672,448.923889 161.559540,448.942291 169.834503,448.695709 
	C171.248734,448.653595 172.629211,447.479034 174.110687,446.415771 
	C175.254761,446.606659 176.528091,447.003357 177.336807,447.845978 
	C182.171387,452.882843 186.778610,458.144043 191.737137,463.052094 
	C193.183563,464.483765 195.529266,465.006897 197.907898,466.438843 
	C198.284531,480.620026 198.216003,494.308868 198.147476,507.997711 
z"/>
<path fill="#1E59E3" opacity="1.000000" stroke="none" 
	d="
M83.202065,360.629486 
	C79.068062,368.505920 68.158859,374.443726 59.625511,373.462006 
	C47.602085,372.078766 37.775501,363.850067 35.033367,353.444763 
	C30.807678,337.409882 41.852879,321.275024 58.713745,319.587280 
	C63.189392,319.139282 67.932449,321.362762 72.790909,323.025269 
	C73.351830,325.598969 73.857964,327.498322 73.949287,329.417389 
	C74.055099,331.640991 73.796326,333.881958 73.403763,335.958252 
	C72.507774,335.235229 71.943474,334.618561 71.293755,334.111328 
	C65.290825,329.424683 57.413448,329.347931 51.503483,333.896545 
	C45.987637,338.141846 44.022823,345.698334 46.732796,352.244293 
	C49.428528,358.755920 56.412891,362.807220 63.623623,361.788818 
	C71.596321,360.662750 75.452126,355.248657 77.717133,348.100189 
	C79.759048,352.337891 81.480560,356.483704 83.202065,360.629486 
z"/>
<path fill="#23BFF7" opacity="1.000000" stroke="none" 
	d="
M597.136230,367.002411 
	C601.427246,368.837891 605.824768,370.463562 609.976990,372.572205 
	C613.598022,374.411041 616.942444,376.794434 620.774536,378.966522 
	C621.139893,383.753906 621.139893,388.511932 621.139893,393.885162 
	C630.935120,393.885162 640.001160,393.885162 649.535950,394.332336 
	C651.018921,396.698639 651.769653,398.829437 653.104492,400.491089 
	C655.568970,403.559174 658.375916,406.352173 661.040222,409.259766 
	C648.030579,409.470917 635.020935,409.682068 621.377808,409.754883 
	C616.643982,405.656799 612.926636,401.166718 606.914917,399.893005 
	C606.352417,399.773865 605.677429,399.186798 605.449097,398.649414 
	C603.799255,394.766205 600.510376,394.784241 597.018433,394.538940 
	C596.998169,385.052429 597.067200,376.027435 597.136230,367.002411 
z"/>
<path fill="#1D89F4" opacity="1.000000" stroke="none" 
	d="
M515.963379,588.823975 
	C523.720520,594.697021 529.027588,603.535950 538.495422,607.381287 
	C539.494324,607.786987 540.093323,609.177429 540.877869,610.111023 
	C539.740417,610.738953 538.617493,611.882202 537.463257,611.914795 
	C526.426697,612.226196 515.384827,612.349792 504.170441,612.769287 
	C503.550812,613.072021 503.105225,613.132690 502.186249,612.875427 
	C501.140442,612.712280 500.567993,612.867065 499.995575,613.021851 
	C496.959961,613.079590 493.924377,613.137390 490.438354,612.731995 
	C488.759796,610.222473 487.695038,608.053955 486.273071,606.152466 
	C481.923340,600.335815 477.436218,594.621948 473.462830,588.769287 
	C487.936523,588.721680 501.949951,588.772827 515.963379,588.823975 
z"/>
<path fill="#1C57E2" opacity="1.000000" stroke="none" 
	d="
M169.539337,507.956055 
	C171.242920,511.193695 172.629410,514.275330 173.676880,517.468140 
	C174.186966,519.023010 174.063980,520.785461 174.083588,522.791870 
	C155.485306,523.045288 137.031021,522.961304 118.576721,522.875793 
	C117.246643,522.869629 115.909523,522.936951 114.587852,522.825684 
	C110.408554,522.473694 107.017517,520.755005 106.290108,516.309631 
	C105.556015,511.823395 107.993454,509.102875 112.934525,508.272888 
	C125.841087,508.717773 138.083069,508.843048 150.325394,508.902588 
	C150.882126,508.905304 151.441742,508.314423 152.000000,508.000000 
	C157.694229,507.948608 163.388443,507.897217 169.539337,507.956055 
z"/>
<path fill="#1D77F0" opacity="1.000000" stroke="none" 
	d="
M473.002533,588.868042 
	C477.436218,594.621948 481.923340,600.335815 486.273071,606.152466 
	C487.695038,608.053955 488.759796,610.222473 489.991699,612.638672 
	C488.605988,613.074158 487.216522,613.139771 485.272736,612.885864 
	C484.143616,612.720947 483.568787,612.875427 482.993958,613.029846 
	C472.300690,613.098877 461.607391,613.167847 450.454651,613.131409 
	C449.714691,611.603149 449.825592,609.923950 449.089172,608.799866 
	C444.857758,602.340881 440.425476,596.013489 436.487366,589.175293 
	C448.943115,588.762085 460.972839,588.815063 473.002533,588.868042 
z"/>
<path fill="#1EAAF7" opacity="1.000000" stroke="none" 
	d="
M624.463928,466.177460 
	C620.772705,456.875397 613.877258,451.528931 605.201843,447.915283 
	C603.716675,447.296631 602.565613,445.818939 601.337158,444.656738 
	C600.110352,443.496063 598.980103,442.233276 597.355347,440.545258 
	C596.965393,433.383667 597.027588,426.692047 597.459412,420.006714 
	C600.413269,421.369690 603.689453,422.137726 605.444031,424.200226 
	C609.667114,429.164368 615.355896,430.955109 621.046936,432.996277 
	C621.046936,438.422272 621.046936,443.848236 621.046936,449.917908 
	C627.569580,449.917908 633.322021,449.917908 639.536804,450.385071 
	C640.934753,453.009979 641.833252,455.184753 642.814880,457.321289 
	C644.179810,460.292236 645.607117,463.234528 647.007690,466.189087 
	C639.646179,466.219177 632.284668,466.249268 624.463928,466.177460 
z"/>
<path fill="#34CAF8" opacity="1.000000" stroke="none" 
	d="
M331.376129,130.019516 
	C331.280975,129.035858 330.960449,128.011719 331.128693,127.075363 
	C331.975800,122.359917 329.948608,120.001030 325.739929,117.655884 
	C319.049438,113.927856 314.690460,107.871590 314.092041,99.477203 
	C317.671112,98.697655 320.866272,98.341736 324.244690,98.202972 
	C325.604736,103.543640 328.649628,107.116913 333.483643,109.110023 
	C342.103638,112.664146 349.769928,109.070107 355.543091,99.027687 
	C359.233490,99.352791 362.519684,99.675156 365.805908,99.997528 
	C364.812927,109.290779 359.215912,115.254532 351.286163,119.132904 
	C348.388336,120.550201 347.537048,122.150574 347.649567,125.171074 
	C347.846954,130.468018 347.635925,135.780182 347.121857,141.358124 
	C346.279175,138.601288 345.910583,135.572281 345.518158,132.347488 
	C340.707123,131.555511 336.041626,130.787521 331.376129,130.019516 
z"/>
<path fill="#30D5F7" opacity="1.000000" stroke="none" 
	d="
M324.061432,97.985817 
	C320.866272,98.341736 317.671112,98.697655 314.001343,99.082237 
	C310.831909,85.577240 320.420990,72.244019 334.338806,68.886932 
	C349.579712,65.210701 366.105164,76.864601 366.904266,94.888596 
	C366.967987,96.325478 366.378235,97.791336 365.949036,99.620621 
	C362.519684,99.675156 359.233490,99.352791 355.529236,98.574455 
	C355.552917,85.539337 349.227631,78.160011 338.620361,78.879608 
	C329.458649,79.501144 323.789856,86.940498 324.061432,97.985817 
z"/>
<path fill="#28CFF7" opacity="1.000000" stroke="none" 
	d="
M675.560425,338.510590 
	C675.996826,348.033569 676.007690,348.002808 685.303528,351.291473 
	C686.278442,351.636383 687.029724,352.613251 687.516052,353.665161 
	C684.770630,354.320465 682.393860,354.607483 680.017151,354.894531 
	C664.976990,354.866608 649.936829,354.838715 634.441040,354.686493 
	C635.400146,348.429810 632.184998,343.790710 628.997009,338.803101 
	C644.359314,338.432556 659.735291,338.397339 675.560425,338.510590 
z"/>
<path fill="#30D5F7" opacity="1.000000" stroke="none" 
	d="
M644.909729,298.049500 
	C645.807495,297.863556 646.705322,297.677582 648.940002,297.214752 
	C645.586365,294.822021 643.075562,293.180969 640.737549,291.322601 
	C638.100586,289.226593 635.619080,286.934998 633.034180,284.384033 
	C649.475769,284.009796 665.953491,283.904053 682.430176,283.994598 
	C687.647156,284.023254 690.825134,286.997314 690.929016,291.258820 
	C691.038025,295.730133 687.732178,298.977264 682.398315,299.032135 
	C670.245056,299.157227 658.089478,299.049286 645.447510,298.771851 
	C644.960205,298.507690 644.909729,298.049500 644.909729,298.049500 
z"/>
<path fill="#1E64EB" opacity="1.000000" stroke="none" 
	d="
M145.532867,393.959320 
	C147.572479,396.769318 149.099777,399.527039 150.743561,402.213470 
	C152.077988,404.394379 153.552246,406.489746 154.982666,408.938660 
	C141.400726,409.339905 127.798462,409.595642 114.201515,409.425751 
	C108.921112,409.359802 105.755745,405.811127 105.908409,401.376099 
	C106.063019,396.884521 109.365486,393.885406 114.683197,393.839417 
	C124.811569,393.751923 134.941574,393.853302 145.532867,393.959320 
z"/>
<path fill="#1E64EB" opacity="1.000000" stroke="none" 
	d="
M83.510956,360.411133 
	C81.480560,356.483704 79.759048,352.337891 77.626122,347.687714 
	C76.041740,343.494019 74.868782,339.804688 73.695816,336.115387 
	C73.796326,333.881958 74.055099,331.640991 73.949287,329.417389 
	C73.857964,327.498322 73.351830,325.598969 73.044998,323.264404 
	C76.850998,326.332520 81.157166,329.432434 84.242195,333.466278 
	C86.166672,335.982635 87.534996,337.215088 90.754745,337.052643 
	C96.512268,336.762177 102.298210,337.034973 108.532143,337.583069 
	C110.328262,343.060455 111.664505,348.027069 113.000755,352.993683 
	C107.190292,353.067444 101.316711,353.704498 95.586479,353.062317 
	C89.400803,352.369141 85.621628,354.306000 83.510956,360.411133 
z"/>
<path fill="#26BBF7" opacity="1.000000" stroke="none" 
	d="
M291.324890,171.598633 
	C286.483063,171.697403 281.806244,171.350967 276.740326,171.004730 
	C276.298340,160.557144 276.112366,150.107651 276.247375,139.662308 
	C276.317413,134.241104 279.438690,131.078568 283.969330,131.067749 
	C288.347076,131.057297 291.492889,134.323807 291.573334,139.791000 
	C291.727142,150.242477 291.537201,160.699005 291.324890,171.598633 
z"/>
<path fill="#20B4F7" opacity="1.000000" stroke="none" 
	d="
M621.143799,432.536133 
	C615.355896,430.955109 609.667114,429.164368 605.444031,424.200226 
	C603.689453,422.137726 600.413269,421.369690 597.370056,419.545227 
	C596.976624,411.051788 597.042175,403.026123 597.107788,395.000458 
	C600.510376,394.784241 603.799255,394.766205 605.449097,398.649414 
	C605.677429,399.186798 606.352417,399.773865 606.914917,399.893005 
	C612.926636,401.166718 616.643982,405.656799 620.938904,409.911377 
	C621.169189,417.496155 621.204895,424.786041 621.143799,432.536133 
z"/>
<path fill="#34CAF8" opacity="1.000000" stroke="none" 
	d="
M661.421997,409.399170 
	C658.375916,406.352173 655.568970,403.559174 653.104492,400.491089 
	C651.769653,398.829437 651.018921,396.698639 650.000427,394.399109 
	C660.953979,393.981323 671.913879,393.804352 682.868713,393.966949 
	C688.120117,394.044891 691.388550,397.384857 691.401917,401.855164 
	C691.414246,405.984619 687.636658,409.603394 682.719971,409.684601 
	C675.750610,409.799744 668.776123,409.602386 661.421997,409.399170 
z"/>
<path fill="#1A73EF" opacity="1.000000" stroke="none" 
	d="
M113.461395,353.087982 
	C111.664505,348.027069 110.328262,343.060455 108.988800,337.689331 
	C119.015800,337.229156 129.046005,337.173523 139.534256,337.221436 
	C141.594345,340.039978 143.270081,342.714813 144.774902,345.482635 
	C145.959534,347.661499 146.933380,349.954987 148.000671,352.598602 
	C136.641022,353.060516 125.281532,353.121399 113.461395,353.087982 
z"/>
<path fill="#30D5F7" opacity="1.000000" stroke="none" 
	d="
M515.013428,170.539429 
	C511.947968,169.832581 508.986084,168.615875 505.982239,167.513290 
	C504.340790,166.910751 502.628448,166.501328 500.569275,166.004883 
	C500.143219,157.022308 499.941650,148.036774 500.110413,139.058182 
	C500.201904,134.189285 503.234467,131.204086 507.375366,131.083527 
	C511.695679,130.957764 515.004395,134.085571 515.090332,139.114761 
	C515.266724,149.432587 515.115784,159.756027 515.013428,170.539429 
z"/>
<path fill="#1D89F4" opacity="1.000000" stroke="none" 
	d="
M174.129486,230.469086 
	C176.570099,229.452881 179.013489,229.120682 181.280548,228.300842 
	C186.680542,226.348038 191.997223,224.164825 197.830383,222.496033 
	C198.265686,229.267654 198.218155,235.617935 197.780121,241.983032 
	C195.841370,242.545090 194.297333,243.104630 192.744110,243.637375 
	C186.558670,245.758987 180.370361,247.872269 174.183121,249.988617 
	C174.139450,243.636215 174.095764,237.283813 174.129486,230.469086 
z"/>
<path fill="#21A3F7" opacity="1.000000" stroke="none" 
	d="
M631.445068,522.745605 
	C629.995056,518.017578 629.004150,513.394836 628.025391,508.333740 
	C638.388184,507.863220 648.738892,507.830933 659.546509,508.319153 
	C660.666504,513.475281 661.329651,518.110962 661.992737,522.746582 
	C651.963196,522.781372 641.933655,522.816162 631.445068,522.745605 
z"/>
<path fill="#26C7F7" opacity="1.000000" stroke="none" 
	d="
M667.000122,450.150757 
	C676.020874,450.113556 685.041565,450.076355 694.533142,450.489227 
	C696.657104,456.144043 698.310181,461.348785 699.963257,466.553497 
	C691.274902,466.591278 682.586426,466.629059 673.457153,466.203003 
	C672.651978,463.626892 672.648682,461.363556 671.842041,459.436493 
	C670.499023,456.227814 668.641174,453.234680 667.000122,450.150757 
z"/>
<path fill="#20B4F7" opacity="1.000000" stroke="none" 
	d="
M666.574829,450.065796 
	C668.641174,453.234680 670.499023,456.227814 671.842041,459.436493 
	C672.648682,461.363556 672.651978,463.626892 673.010071,466.063080 
	C664.593384,466.419189 656.182861,466.451294 647.390015,466.336243 
	C645.607117,463.234528 644.179810,460.292236 642.814880,457.321289 
	C641.833252,455.184753 640.934753,453.009979 639.998657,450.469208 
	C645.701416,450.040161 651.404724,449.994141 657.754456,450.253540 
	C659.254028,450.406891 660.107178,450.254852 660.960327,450.102783 
	C662.690063,450.062134 664.419800,450.021484 666.574829,450.065796 
z"/>
<path fill="#34CAF8" opacity="1.000000" stroke="none" 
	d="
M700.422852,466.663696 
	C698.310181,461.348785 696.657104,456.144043 694.993164,450.577087 
	C702.338257,450.175110 709.694153,450.135376 717.513000,450.025330 
	C722.898010,457.348694 725.928833,465.307159 725.110413,474.727112 
	C724.319336,474.569733 723.316040,474.171967 723.106873,473.519562 
	C720.413635,465.120758 713.470215,466.951721 707.323303,466.855011 
	C705.176514,466.821259 703.029419,466.800568 700.422852,466.663696 
z"/>
<path fill="#26BBF7" opacity="1.000000" stroke="none" 
	d="
M331.286133,130.479233 
	C336.041626,130.787521 340.707123,131.555511 345.518158,132.347488 
	C345.910583,135.572281 346.279175,138.601288 346.958679,141.794113 
	C347.361938,147.691269 347.454254,153.424606 347.376160,159.602585 
	C345.295380,159.695419 343.395874,159.259521 341.472198,159.011017 
	C338.379211,158.611420 335.270233,158.335617 331.797333,158.013184 
	C331.349823,148.992218 331.272980,139.965591 331.286133,130.479233 
z"/>
<path fill="#26BBF7" opacity="1.000000" stroke="none" 
	d="
M662.453125,522.841309 
	C661.329651,518.110962 660.666504,513.475281 660.009033,508.409973 
	C667.662720,507.940857 675.313843,507.755890 682.957825,507.914948 
	C687.772522,508.015106 690.885010,511.082764 690.939209,515.123474 
	C690.996765,519.414978 687.812988,522.733032 682.882263,522.891418 
	C676.232422,523.105103 669.570374,522.939026 662.453125,522.841309 
z"/>
<path fill="#2793F5" opacity="1.000000" stroke="none" 
	d="
M174.099625,250.447662 
	C180.370361,247.872269 186.558670,245.758987 192.744110,243.637375 
	C194.297333,243.104630 195.841370,242.545090 197.945190,242.347290 
	C198.392303,246.809113 198.283890,250.921524 198.175476,255.033905 
	C191.927170,257.460815 185.680084,259.890869 179.429703,262.312347 
	C177.936600,262.890778 176.432434,263.440643 174.557068,264.007782 
	C174.125916,259.643524 174.071030,255.275131 174.099625,250.447662 
z"/>
<path fill="#34CAF8" opacity="1.000000" stroke="none" 
	d="
M401.860962,153.557938 
	C398.683929,152.664246 395.602997,151.268417 392.483490,149.964813 
	C390.742584,149.237305 388.937622,148.663055 386.791138,148.028839 
	C386.392914,144.731567 386.015442,141.381638 386.420807,138.129272 
	C387.000732,133.476151 390.386505,130.670532 394.409668,130.831009 
	C398.623566,130.999115 401.783508,134.346741 401.934845,139.157654 
	C402.080872,143.798691 401.950104,148.448441 401.860962,153.557938 
z"/>
<path fill="#24AAF7" opacity="1.000000" stroke="none" 
	d="
M197.666870,192.990692 
	C198.231277,197.422256 194.678314,197.520874 192.031158,198.451279 
	C186.541153,200.380814 180.994858,202.150192 175.062134,203.978485 
	C175.201294,196.271332 178.015869,193.429031 185.566162,193.102463 
	C189.486664,192.932877 193.413452,192.908157 197.666870,192.990692 
z"/>
<path fill="#2793F5" opacity="1.000000" stroke="none" 
	d="
M173.630020,283.459259 
	C173.201462,283.872009 172.315979,284.925476 171.431442,284.924652 
	C152.172668,284.907288 132.913986,284.772552 113.351639,284.383423 
	C114.832054,283.911865 116.615997,283.549896 118.400200,283.548584 
	C136.657944,283.535126 154.915741,283.580231 173.630020,283.459259 
z"/>
<path fill="#1E5DE8" opacity="1.000000" stroke="none" 
	d="
M151.630554,507.838257 
	C151.441742,508.314423 150.882126,508.905304 150.325394,508.902588 
	C138.083069,508.843048 125.841087,508.717773 113.303986,508.310760 
	C121.607552,507.853333 130.205673,507.649933 138.804977,507.544434 
	C142.955856,507.493530 147.108978,507.626740 151.630554,507.838257 
z"/>
<path fill="#6CDEFA" opacity="1.000000" stroke="none" 
	d="
M680.343994,355.136292 
	C682.393860,354.607483 684.770630,354.320465 687.574219,354.023895 
	C696.223267,354.028320 704.446655,353.971893 712.666504,354.114532 
	C714.348389,354.143707 716.017212,354.919281 717.812256,355.736938 
	C707.492126,355.970581 697.051636,355.828400 686.611572,355.656616 
	C684.630371,355.623993 682.651062,355.473907 680.343994,355.136292 
z"/>
<path fill="#6CDEFA" opacity="1.000000" stroke="none" 
	d="
M644.453796,298.055298 
	C644.909729,298.049500 644.960205,298.507690 644.979858,298.737305 
	C640.228027,299.097260 635.456482,299.227539 630.348511,299.136230 
	C634.673950,298.630096 639.335938,298.345581 644.453796,298.055298 
z"/>
<path fill="#34CAF8" opacity="1.000000" stroke="none" 
	d="
M660.745605,449.953491 
	C660.107178,450.254852 659.254028,450.406891 658.220215,450.324951 
	C658.870056,449.995392 659.700439,449.899780 660.745605,449.953491 
z"/>
<path fill="#30D5F7" opacity="1.000000" stroke="none" 
	d="
M622.791504,283.803772 
	C622.417969,283.865448 621.834595,283.734253 621.389282,283.407288 
	C621.878723,283.344635 622.230164,283.477783 622.791504,283.803772 
z"/>
<path fill="#6CDEFA" opacity="1.000000" stroke="none" 
	d="
M621.833740,299.800598 
	C621.930725,299.436310 622.308777,298.978119 622.835449,298.715088 
	C622.694275,299.175720 622.404541,299.441223 621.833740,299.800598 
z"/>
<path fill="#2092F5" opacity="1.000000" stroke="none" 
	d="
M483.171204,613.161011 
	C483.568787,612.875427 484.143616,612.720947 484.862671,612.797913 
	C484.454102,613.117004 483.901306,613.204651 483.171204,613.161011 
z"/>
<path fill="#2092F5" opacity="1.000000" stroke="none" 
	d="
M500.174377,613.148315 
	C500.567993,612.867065 501.140442,612.712280 501.857849,612.786682 
	C501.452911,613.102173 500.903046,613.188477 500.174377,613.148315 
z"/>
<path fill="#FAFCFF" opacity="1.000000" stroke="none" 
	d="
M473.462830,588.769287 
	C460.972839,588.815063 448.943115,588.762085 436.455383,588.822266 
	C410.970032,588.886292 385.942719,588.837097 360.455872,588.892334 
	C358.927765,588.933350 357.859161,588.870056 356.029510,588.795166 
	C354.510620,588.858704 353.752838,588.934021 352.995026,589.009399 
	C335.372528,588.943604 317.749969,588.837341 300.127747,588.882874 
	C298.587189,588.886841 296.865112,589.606201 295.539551,590.471619 
	C286.073242,596.651550 276.688019,602.955627 267.103638,609.500610 
	C238.706589,627.654419 210.484329,645.529968 182.257095,663.397644 
	C179.457047,665.170044 176.626480,666.894043 173.121109,669.067627 
	C173.484375,667.502563 173.564819,666.632996 173.883087,665.861572 
	C181.226303,648.062866 188.938889,630.404968 195.759521,612.408875 
	C197.928360,606.686462 198.282654,600.088623 198.501846,593.857361 
	C198.864151,583.558167 198.442520,573.231445 198.248367,562.456604 
	C198.213852,544.303772 198.282211,526.610596 198.249023,508.457581 
	C198.216003,494.308868 198.284531,480.620026 198.278961,466.467590 
	C203.545258,465.555267 208.885651,465.106537 215.099442,464.584381 
	C215.099442,471.970154 215.099442,478.532745 215.107483,486.009674 
	C214.981552,510.214264 214.841614,533.504517 214.717575,556.794861 
	C214.683517,563.189392 218.283310,566.635193 224.667862,566.520752 
	C229.321442,566.437317 233.977539,566.491699 238.632523,566.489319 
	C262.414001,566.477173 286.195496,566.466614 310.432800,566.577881 
	C317.027954,566.733643 323.167297,566.804810 329.306549,566.793640 
	C353.527771,566.749573 377.748962,566.679626 402.429626,566.728210 
	C417.594971,566.774963 432.300812,566.712769 447.464539,566.751343 
	C467.943970,566.818115 487.965485,566.784119 508.445404,566.857544 
	C529.810486,567.209167 550.716919,567.483826 571.624146,567.675598 
	C576.653503,567.721802 580.263977,564.301025 580.298096,559.397766 
	C580.350037,551.933472 580.168396,544.467590 580.170959,536.539734 
	C580.268494,514.418396 580.242188,492.759460 580.367310,471.101379 
	C580.377319,469.363007 581.430115,467.630707 581.998413,465.895569 
	C586.757080,465.895569 591.515747,465.895569 596.868652,465.895569 
	C596.868652,471.882416 596.868652,476.980865 596.961304,482.539490 
	C596.987244,507.025635 596.920471,531.051575 596.945679,555.538818 
	C597.037537,566.575500 597.037537,577.150940 597.037537,588.483643 
	C569.727295,588.483643 543.214478,588.483643 516.332520,588.653809 
	C501.949951,588.772827 487.936523,588.721680 473.462830,588.769287 
z"/>
<path fill="#FEFEFF" opacity="1.000000" stroke="none" 
	d="
M564.342590,427.002625 
	C564.281921,434.695862 564.221191,442.389099 564.166016,451.004639 
	C564.224731,475.280731 564.277832,498.634521 564.242737,522.450317 
	C564.154541,532.132935 564.154541,541.353638 564.154541,551.009460 
	C545.520447,551.009460 527.759766,551.009460 509.535889,550.931458 
	C486.716492,550.896301 464.360260,550.939148 441.608978,550.873291 
	C434.238647,550.693420 427.263275,550.553345 420.288177,550.566406 
	C408.845459,550.587891 397.402924,550.708801 385.517151,550.647217 
	C369.309204,550.392090 353.544617,550.220947 337.779694,550.179993 
	C323.516510,550.142883 309.252991,550.247986 294.532959,550.182861 
	C275.195740,550.330261 256.311401,550.442078 237.437271,550.940063 
	C232.674210,551.065735 231.189911,549.769165 231.270691,544.890564 
	C231.523544,529.620728 231.262405,514.342407 231.200439,499.067383 
	C231.356049,488.309326 231.565491,477.551666 231.649506,466.793030 
	C231.711670,458.832306 231.610596,450.870270 231.584290,442.021545 
	C231.500214,423.421631 231.414078,405.709045 231.327972,387.996429 
	C231.465637,387.019409 231.723068,386.042419 231.723618,385.065338 
	C231.742844,351.358673 231.737808,317.652039 231.758255,283.037659 
	C231.780273,272.087433 231.780273,262.044952 231.780273,251.354996 
	C240.451523,251.354996 248.221985,251.354996 256.444489,251.488754 
	C276.263000,251.524506 295.629517,251.426498 314.996002,251.328506 
	C322.607574,251.457977 330.218964,251.683350 337.830750,251.697083 
	C353.916504,251.726105 370.002472,251.644516 386.983276,251.609818 
	C402.920715,251.513412 417.963226,251.415497 433.005707,251.317566 
	C448.697571,251.414474 464.389435,251.511368 480.976135,251.614853 
	C503.893646,251.551300 525.916321,251.481155 548.387939,251.556763 
	C553.729431,251.702499 558.622070,251.702499 564.300293,251.702499 
	C564.300293,257.606171 564.300293,262.830048 564.300293,268.053955 
	C564.255249,298.399872 564.210144,328.745819 564.175842,360.013367 
	C564.242554,373.957764 564.298584,386.980469 564.268677,400.464508 
	C564.235962,409.618073 564.289246,418.310364 564.342590,427.002625 
M510.923767,371.119385 
	C516.816772,371.119385 522.709839,371.119385 528.574829,371.119385 
	C528.574829,361.255493 528.574829,352.208588 528.574829,342.973389 
	C510.485474,342.973389 492.742126,342.973389 474.074585,342.801392 
	C464.383209,342.855682 454.691833,342.909943 444.075470,342.796600 
	C437.806488,342.796600 431.537506,342.796600 425.140625,342.796600 
	C425.140625,352.479980 425.140625,361.547394 425.140625,371.151733 
	C436.165497,371.151733 446.905548,371.151733 458.441528,371.151733 
	C458.441528,376.789124 458.441528,381.898529 458.254639,387.927429 
	C458.319305,397.955658 458.383942,407.983917 458.251862,418.927094 
	C458.251862,433.799744 458.251862,448.672363 458.251862,463.532593 
	C470.779694,463.532593 482.526062,463.532593 494.544281,463.532593 
	C494.544281,456.183105 494.544281,449.097015 494.785950,441.100311 
	C494.707642,429.735199 494.629333,418.370056 494.799347,406.099030 
	C494.718658,396.736115 494.637939,387.373230 494.797516,377.144867 
	C494.882751,375.356476 494.967987,373.568115 495.092865,370.947876 
	C500.198059,370.947876 505.099030,370.947876 510.923767,371.119385 
M361.157440,342.803406 
	C359.484528,343.582672 356.678345,344.025360 356.330078,345.197998 
	C354.598724,351.027802 353.514740,357.049835 351.855560,363.700562 
	C349.583527,373.467926 347.311523,383.235291 344.759949,393.720764 
	C342.600555,403.414459 340.441162,413.108124 338.350250,422.494354 
	C335.202026,410.099426 332.015411,397.553223 328.906860,384.197815 
	C325.527283,370.513397 322.147736,356.828979 318.731018,342.994202 
	C300.503632,342.994202 282.605988,342.994202 264.415161,342.994202 
	C264.415161,358.830811 264.415161,374.418030 264.234528,390.925934 
	C264.234528,415.107300 264.234528,439.288666 264.234528,463.482178 
	C275.174805,463.482178 285.402405,463.482178 296.018890,463.482178 
	C296.018890,457.223969 296.059875,451.270264 296.011230,445.317291 
	C295.863342,427.211670 295.680817,409.106323 295.725281,390.124268 
	C295.725281,384.112244 295.725281,378.100250 295.725281,371.740021 
	C296.553406,375.024719 297.304230,378.002655 297.972504,381.813782 
	C302.464325,400.168243 306.913147,418.533356 311.466370,436.872559 
	C313.691132,445.833405 316.110321,454.745941 318.471924,463.796936 
	C329.277924,463.796936 339.575134,463.866272 349.868256,463.693665 
	C350.941040,463.675690 352.702545,462.398651 352.943665,461.412262 
	C357.122559,444.318451 361.113190,427.178650 365.627930,409.485260 
	C368.079407,398.324036 370.530853,387.162781 373.285431,375.345428 
	C373.648102,374.397858 374.010773,373.450317 374.373444,372.502747 
	C374.567200,372.577972 374.760956,372.653198 374.954712,372.728424 
	C374.954712,376.484711 374.954712,380.240997 374.759003,384.837524 
	C374.759003,411.042114 374.759003,437.246674 374.759003,463.509796 
	C386.554260,463.509796 398.117981,463.509796 409.959961,463.509796 
	C409.959961,444.148804 409.959961,425.074890 410.154114,405.080322 
	C410.088745,394.386993 410.023407,383.693665 410.146698,372.078796 
	C410.146698,362.493286 410.146698,352.907745 410.146698,342.983368 
	C393.772247,342.983368 377.886200,342.983368 361.157440,342.803406 
z"/>
<path fill="#FAFDFF" opacity="1.000000" stroke="none" 
	d="
M198.258026,255.494720 
	C198.283890,250.921524 198.392303,246.809113 198.335678,242.332458 
	C198.218155,235.617935 198.265686,229.267654 198.221268,222.455811 
	C197.948105,218.636078 199.389450,217.604324 202.846252,217.621674 
	C226.249741,217.739304 249.654480,217.611237 273.524292,217.521881 
	C287.022400,217.422623 300.055084,217.364105 313.545715,217.219727 
	C319.478180,217.133835 324.952667,217.133835 330.801422,217.133835 
	C330.801422,223.488785 330.801422,229.038361 330.801422,235.380417 
	C324.086975,235.380417 317.486176,235.380417 309.991089,235.392975 
	C296.659515,235.370377 284.222046,235.276855 271.785004,235.317337 
	C260.521698,235.354004 249.258896,235.536804 237.551483,235.513504 
	C233.453064,235.336411 229.798691,235.250732 226.145096,235.276688 
	C219.815002,235.321640 215.810211,238.438934 215.610519,244.731110 
	C215.279449,255.163116 215.679733,265.618317 215.771912,276.063751 
	C215.635712,294.044678 215.497864,312.025635 215.365417,330.006592 
	C215.349625,332.149323 215.363266,334.292267 215.363266,336.768677 
	C209.760834,336.768677 204.526627,336.768677 198.339005,336.768677 
	C198.339005,323.431671 198.339005,310.175690 198.242889,296.458771 
	C198.211365,282.650421 198.275970,269.302979 198.258026,255.494720 
z"/>
<path fill="#F7FAFE" opacity="1.000000" stroke="none" 
	d="
M198.231873,439.439850 
	C198.201111,419.636383 198.264633,400.277710 198.234406,380.457642 
	C198.140671,371.383789 198.140671,362.771393 198.140671,353.749542 
	C204.128525,353.749542 209.484451,353.749542 215.471481,353.749542 
	C215.471481,366.250488 215.471481,378.661713 215.481689,391.990906 
	C215.483536,408.276703 215.475189,423.644592 215.466858,439.012451 
	C215.276413,442.113434 215.085983,445.214447 214.880783,448.555603 
	C209.467819,448.555603 204.366409,448.555603 198.326157,448.555603 
	C198.326157,445.690918 198.326157,442.787781 198.231873,439.439850 
z"/>
<path fill="#2793F5" opacity="1.000000" stroke="none" 
	d="
M216.107758,276.043701 
	C215.679733,265.618317 215.279449,255.163116 215.610519,244.731110 
	C215.810211,238.438934 219.815002,235.321640 226.145096,235.276688 
	C229.798691,235.250732 233.453064,235.336411 237.573608,235.833542 
	C242.095657,238.894363 246.372940,241.214218 250.125946,244.194305 
	C252.487671,246.069611 254.063858,248.934204 255.992447,251.354996 
	C248.221985,251.354996 240.451523,251.354996 231.780273,251.354996 
	C231.780273,262.044952 231.780273,272.087433 231.647766,282.584839 
	C227.549271,283.343903 224.198151,282.839722 221.921356,278.740082 
	C221.106598,277.273041 218.326614,276.897430 216.107758,276.043701 
z"/>
<path fill="#1A73EF" opacity="1.000000" stroke="none" 
	d="
M215.837677,439.010223 
	C215.475189,423.644592 215.483536,408.276703 215.591187,392.449097 
	C217.086914,391.651978 219.356232,391.724823 219.738708,390.910980 
	C222.301117,385.458160 226.613983,387.560120 230.953583,388.000061 
	C231.414078,405.709045 231.500214,423.421631 231.429352,441.581421 
	C226.251068,441.021729 221.229782,440.014862 215.837677,439.010223 
z"/>
<path fill="#FAFDFF" opacity="1.000000" stroke="none" 
	d="
M370.541565,217.117737 
	C384.360748,217.067596 397.719086,217.110443 411.539429,217.064438 
	C422.112396,216.975571 432.223328,216.975571 442.740417,216.975571 
	C442.740417,223.235443 442.740417,228.923981 442.740417,235.385956 
	C438.748505,235.385956 434.819519,235.385956 429.998840,235.392609 
	C411.064575,235.494354 393.022034,235.589417 374.979462,235.684509 
	C366.073273,235.684509 357.167053,235.684509 347.969055,235.684509 
	C347.969055,229.157684 347.969055,223.613266 347.969055,217.210754 
	C355.542908,217.210754 362.811798,217.210754 370.541565,217.117737 
z"/>
<path fill="#1E99F6" opacity="1.000000" stroke="none" 
	d="
M256.444489,251.488754 
	C254.063858,248.934204 252.487671,246.069611 250.125946,244.194305 
	C246.372940,241.214218 242.095657,238.894363 238.018005,235.975189 
	C249.258896,235.536804 260.521698,235.354004 271.785004,235.317337 
	C284.222046,235.276855 296.659515,235.370377 309.547607,235.544403 
	C311.661591,240.668335 313.324768,245.653412 314.991974,250.983490 
	C295.629517,251.426498 276.263000,251.524506 256.444489,251.488754 
z"/>
<path fill="#20B4F7" opacity="1.000000" stroke="none" 
	d="
M375.005615,236.030060 
	C393.022034,235.589417 411.064575,235.494354 429.557861,235.542664 
	C431.003387,240.668533 431.998199,245.651047 432.999359,250.975555 
	C417.963226,251.415497 402.920715,251.513412 387.427246,251.465851 
	C385.862091,250.200195 384.932190,248.720642 383.595184,248.035202 
	C380.868500,246.637314 377.922485,245.667206 375.812347,244.820145 
	C375.499847,241.439468 375.265808,238.907562 375.005615,236.030060 
z"/>
<path fill="#F9FDFF" opacity="1.000000" stroke="none" 
	d="
M459.092773,219.459198 
	C460.529053,218.380981 462.041748,217.261826 463.577606,217.229050 
	C472.739960,217.033493 481.907715,217.088608 491.535583,216.972534 
	C515.023132,216.929474 538.048767,216.973526 561.535645,216.927307 
	C573.430237,216.837021 584.863586,216.837021 597.026428,216.837021 
	C597.026428,235.348846 597.026428,253.218124 597.124390,271.548126 
	C597.146301,287.699127 597.070190,303.389404 597.086365,319.540833 
	C597.178711,325.782471 597.178711,331.562988 597.178711,337.726990 
	C591.313599,337.726990 586.118774,337.726990 580.227722,337.726990 
	C580.227722,317.377014 580.227722,297.160950 580.365601,276.121582 
	C580.562134,265.018463 580.728516,254.737625 580.635376,244.459122 
	C580.586548,239.073227 577.700806,235.455139 572.713013,235.368835 
	C560.793640,235.162598 548.865112,235.491379 536.487915,235.490738 
	C524.107056,235.346344 512.178406,235.254990 500.250305,235.303543 
	C490.823578,235.341919 481.397522,235.552231 471.971191,235.686188 
	C467.903748,235.450653 463.836304,235.215118 459.179871,234.945465 
	C459.179871,229.755646 459.179871,224.837921 459.092773,219.459198 
z"/>
<path fill="#F7FAFE" opacity="1.000000" stroke="none" 
	d="
M597.018433,394.538940 
	C597.042175,403.026123 596.976624,411.051788 597.000427,419.538940 
	C597.027588,426.692047 596.965393,433.383667 596.989746,440.537018 
	C596.449707,449.846863 596.449707,449.846527 587.151245,449.838409 
	C585.043945,449.836548 582.936707,449.838104 580.240051,449.838104 
	C580.240051,444.140015 580.240051,439.029877 580.238281,432.996033 
	C580.176453,424.047272 580.116333,416.022247 580.144104,407.535278 
	C580.171021,394.048065 580.110107,381.022766 580.049194,367.997437 
	C580.080139,367.835236 580.127319,367.674225 580.139648,367.510620 
	C580.457031,363.306763 580.770813,359.102570 581.085205,354.898468 
	C586.133545,354.898468 591.181885,354.898468 596.956726,354.898468 
	C596.956726,358.620026 596.956726,362.354340 597.046509,366.545532 
	C597.067200,376.027435 596.998169,385.052429 597.018433,394.538940 
z"/>
<path fill="#45D2F8" opacity="1.000000" stroke="none" 
	d="
M536.940247,235.604126 
	C548.865112,235.491379 560.793640,235.162598 572.713013,235.368835 
	C577.700806,235.455139 580.586548,239.073227 580.635376,244.459122 
	C580.728516,254.737625 580.562134,265.018463 580.313232,275.656067 
	C575.733826,273.493805 571.354980,270.955566 566.942505,268.477142 
	C566.394775,268.169495 565.668640,268.179535 564.662720,268.048157 
	C564.300293,262.830048 564.300293,257.606171 564.300293,251.702499 
	C558.622070,251.702499 553.729431,251.702499 548.391479,251.233002 
	C546.839661,249.437149 545.640686,248.176407 544.644775,246.771683 
	C542.029358,243.082657 539.502441,239.330902 536.940247,235.604126 
z"/>
<path fill="#20B4F7" opacity="1.000000" stroke="none" 
	d="
M579.695190,367.964783 
	C580.110107,381.022766 580.171021,394.048065 579.788025,407.503021 
	C574.347595,405.289490 569.351074,402.646332 564.354614,400.003204 
	C564.298584,386.980469 564.242554,373.957764 564.269287,360.473816 
	C570.532715,360.410736 575.098755,363.865173 579.695190,367.964783 
z"/>
<path fill="#26C7F7" opacity="1.000000" stroke="none" 
	d="
M536.487915,235.490738 
	C539.502441,239.330902 542.029358,243.082657 544.644775,246.771683 
	C545.640686,248.176407 546.839661,249.437149 547.942505,251.087265 
	C525.916321,251.481155 503.893646,251.551300 481.420013,251.472626 
	C479.867157,249.270447 478.851379,247.164734 477.643158,245.175934 
	C475.830933,242.192993 473.883698,239.292084 471.982544,236.021240 
	C481.397522,235.552231 490.823578,235.341919 500.250305,235.303543 
	C512.178406,235.254990 524.107056,235.346344 536.487915,235.490738 
z"/>
<path fill="#1B66EE" opacity="1.000000" stroke="none" 
	d="
M353.045715,589.343262 
	C353.752838,588.934021 354.510620,588.858704 355.636658,588.891785 
	C355.035400,589.225769 354.065887,589.451477 353.045715,589.343262 
z"/>
<path fill="#FAFCFF" opacity="1.000000" stroke="none" 
	d="
M48.634712,453.723328 
	C51.227074,444.553955 58.793522,439.714478 67.176819,441.545532 
	C75.302933,443.320404 80.299995,451.141052 78.782349,459.708771 
	C77.442345,467.273682 69.436989,473.107758 61.937138,471.985077 
	C53.346432,470.699097 47.588108,463.020477 48.634712,453.723328 
z"/>
<path fill="#F9FDFF" opacity="1.000000" stroke="none" 
	d="
M447.870544,79.707069 
	C457.415680,78.353874 464.217438,83.045326 466.184174,92.007133 
	C467.780487,99.281075 462.934357,107.132423 455.479706,109.349739 
	C447.462250,111.734451 439.492645,107.741806 436.606781,99.894676 
	C433.472717,91.372635 438.034393,82.927834 447.870544,79.707069 
z"/>
<path fill="#F9FDFF" opacity="1.000000" stroke="none" 
	d="
M758.659912,342.804443 
	C759.456787,352.280273 756.040405,358.207397 748.469116,361.084473 
	C742.339966,363.413513 733.956482,361.106964 729.973633,356.156586 
	C725.671631,350.809692 725.391174,338.963593 733.651489,333.365051 
	C741.303284,328.178986 751.842407,330.281616 756.724365,338.312744 
	C757.494019,339.578979 757.943481,341.039825 758.659912,342.804443 
z"/>
<path fill="#1A61EA" opacity="1.000000" stroke="none" 
	d="
M230.830536,499.020630 
	C231.262405,514.342407 231.523544,529.620728 231.270691,544.890564 
	C231.189911,549.769165 232.674210,551.065735 237.437271,550.940063 
	C256.311401,550.442078 275.195740,550.330261 294.542175,550.535889 
	C296.428040,552.370544 297.893372,553.701233 299.259186,555.127136 
	C302.854889,558.881165 306.407318,562.676514 309.976990,566.455444 
	C286.195496,566.466614 262.414001,566.477173 238.632523,566.489319 
	C233.977539,566.491699 229.321442,566.437317 224.667862,566.520752 
	C218.283310,566.635193 214.683517,563.189392 214.717575,556.794861 
	C214.841614,533.504517 214.981552,510.214264 215.220016,486.466187 
	C218.178223,488.253113 221.101105,490.416626 223.864182,492.767853 
	C226.160522,494.721924 228.268951,496.896790 230.830536,499.020630 
z"/>
<path fill="#1E99F6" opacity="1.000000" stroke="none" 
	d="
M564.330933,521.988342 
	C564.277832,498.634521 564.224731,475.280731 564.255737,451.465210 
	C565.602539,451.869446 566.817566,452.817688 568.138855,453.582428 
	C570.212463,454.782593 572.248352,456.454742 574.494812,456.867157 
	C579.596252,457.803711 581.632385,459.685333 581.998047,465.499420 
	C581.430115,467.630707 580.377319,469.363007 580.367310,471.101379 
	C580.242188,492.759460 580.268494,514.418396 579.766846,536.533508 
	C575.980957,536.125793 572.684143,535.261658 569.063538,534.312683 
	C569.164368,532.945435 569.050781,531.620361 569.387329,530.421692 
	C570.817932,525.325317 569.762817,523.487000 564.330933,521.988342 
z"/>
<path fill="#1EAAF7" opacity="1.000000" stroke="none" 
	d="
M564.268677,400.464508 
	C569.351074,402.646332 574.347595,405.289490 579.700134,407.964905 
	C580.116333,416.022247 580.176453,424.047272 580.151733,432.534332 
	C576.727295,431.544403 573.406677,430.046661 570.040039,428.660553 
	C568.432251,427.998535 566.737305,427.548431 564.712158,427.002502 
	C564.289246,418.310364 564.235962,409.618073 564.268677,400.464508 
z"/>
<path fill="#FAFDFF" opacity="1.000000" stroke="none" 
	d="
M742.566833,441.342773 
	C751.853821,441.258179 757.709534,445.630341 759.297729,453.482269 
	C760.796509,460.892487 757.320923,467.772278 750.615295,470.669159 
	C742.789551,474.049927 733.583618,470.338257 730.265320,462.464447 
	C726.931946,454.554840 730.384949,446.058929 738.380127,442.611969 
	C739.592346,442.089386 740.903992,441.797424 742.566833,441.342773 
z"/>
<path fill="#FAFCFF" opacity="1.000000" stroke="none" 
	d="
M73.403763,335.958252 
	C74.868782,339.804688 76.041740,343.494019 77.305725,347.595795 
	C75.452126,355.248657 71.596321,360.662750 63.623623,361.788818 
	C56.412891,362.807220 49.428528,358.755920 46.732796,352.244293 
	C44.022823,345.698334 45.987637,338.141846 51.503483,333.896545 
	C57.413448,329.347931 65.290825,329.424683 71.293755,334.111328 
	C71.943474,334.618561 72.507774,335.235229 73.403763,335.958252 
z"/>
<path fill="#FAFDFF" opacity="1.000000" stroke="none" 
	d="
M324.244690,98.202972 
	C323.789856,86.940498 329.458649,79.501144 338.620361,78.879608 
	C349.227631,78.160011 355.552917,85.539337 355.125092,98.571724 
	C349.769928,109.070107 342.103638,112.664146 333.483643,109.110023 
	C328.649628,107.116913 325.604736,103.543640 324.244690,98.202972 
z"/>
<path fill="#1A6AEF" opacity="1.000000" stroke="none" 
	d="
M310.432800,566.577881 
	C306.407318,562.676514 302.854889,558.881165 299.259186,555.127136 
	C297.893372,553.701233 296.428040,552.370544 294.998840,550.643433 
	C309.252991,550.247986 323.516510,550.142883 337.779694,550.179993 
	C353.544617,550.220947 369.309204,550.392090 385.618896,550.929932 
	C390.504944,554.743896 394.968597,557.993713 399.117615,561.604980 
	C400.486328,562.796326 401.042480,564.921204 401.970154,566.619263 
	C377.748962,566.679626 353.527771,566.749573 329.306549,566.793640 
	C323.167297,566.804810 317.027954,566.733643 310.432800,566.577881 
z"/>
<path fill="#2793F5" opacity="1.000000" stroke="none" 
	d="
M564.242737,522.450317 
	C569.762817,523.487000 570.817932,525.325317 569.387329,530.421692 
	C569.050781,531.620361 569.164368,532.945435 569.063538,534.312683 
	C572.684143,535.261658 575.980957,536.125793 579.681824,536.996155 
	C580.168396,544.467590 580.350037,551.933472 580.298096,559.397766 
	C580.263977,564.301025 576.653503,567.721802 571.624146,567.675598 
	C550.716919,567.483826 529.810486,567.209167 508.452515,566.509460 
	C508.861267,564.351379 509.721222,562.648743 510.581177,560.946106 
	C510.082520,560.890991 509.583862,560.835876 509.085205,560.780701 
	C509.208893,558.482117 509.295380,556.180664 509.473816,553.886292 
	C509.549011,552.919617 509.818146,551.967957 509.999115,551.009460 
	C527.759766,551.009460 545.520447,551.009460 564.154541,551.009460 
	C564.154541,541.353638 564.154541,532.132935 564.242737,522.450317 
z"/>
<path fill="#1D89F4" opacity="1.000000" stroke="none" 
	d="
M509.535889,550.931458 
	C509.818146,551.967957 509.549011,552.919617 509.473816,553.886292 
	C509.295380,556.180664 509.208893,558.482117 509.085205,560.780701 
	C509.583862,560.835876 510.082520,560.890991 510.581177,560.946106 
	C509.721222,562.648743 508.861267,564.351379 507.994141,566.402039 
	C487.965485,566.784119 467.943970,566.818115 447.461243,566.378174 
	C446.200500,563.638489 445.369873,561.383118 444.609406,559.104370 
	C443.709351,556.407471 442.869812,553.690369 442.004059,550.982056 
	C464.360260,550.939148 486.716492,550.896301 509.535889,550.931458 
z"/>
<path fill="#207FF2" opacity="1.000000" stroke="none" 
	d="
M441.608978,550.873291 
	C442.869812,553.690369 443.709351,556.407471 444.609406,559.104370 
	C445.369873,561.383118 446.200500,563.638489 447.003357,566.277405 
	C432.300812,566.712769 417.594971,566.774963 402.429626,566.728210 
	C401.042480,564.921204 400.486328,562.796326 399.117615,561.604980 
	C394.968597,557.993713 390.504944,554.743896 386.062103,551.070496 
	C397.402924,550.708801 408.845459,550.587891 420.288177,550.566406 
	C427.263275,550.553345 434.238647,550.693420 441.608978,550.873291 
z"/>
<path fill="#1D77F0" opacity="1.000000" stroke="none" 
	d="
M328.828796,385.006989 
	C332.015411,397.553223 335.202026,410.099426 338.350250,422.494354 
	C340.441162,413.108124 342.600555,403.414459 345.263306,393.401489 
	C349.159821,395.203339 352.910339,396.923920 355.853180,399.549713 
	C359.316101,402.639618 362.078705,406.514435 365.144958,410.048920 
	C361.113190,427.178650 357.122559,444.318451 352.943665,461.412262 
	C352.702545,462.398651 350.941040,463.675690 349.868256,463.693665 
	C339.575134,463.866272 329.277924,463.796936 318.471924,463.796936 
	C316.110321,454.745941 313.691132,445.833405 311.466370,436.872559 
	C306.913147,418.533356 302.464325,400.168243 298.390015,381.231262 
	C305.783295,380.697662 312.829651,377.143860 319.750885,381.657135 
	C322.384918,383.374786 325.780365,383.924805 328.828796,385.006989 
z"/>
<path fill="#207FF2" opacity="1.000000" stroke="none" 
	d="
M328.867828,384.602417 
	C325.780365,383.924805 322.384918,383.374786 319.750885,381.657135 
	C312.829651,377.143860 305.783295,380.697662 298.431274,380.814697 
	C297.304230,378.002655 296.553406,375.024719 295.725281,371.740021 
	C295.725281,378.100250 295.725281,384.112244 295.295746,390.494873 
	C293.014130,389.593811 291.288422,387.501007 289.288025,387.193298 
	C280.809784,385.889008 272.268341,385.270020 264.415161,390.005219 
	C264.415161,374.418030 264.415161,358.830811 264.415161,342.994202 
	C282.605988,342.994202 300.503632,342.994202 318.731018,342.994202 
	C322.147736,356.828979 325.527283,370.513397 328.867828,384.602417 
z"/>
<path fill="#1A73EF" opacity="1.000000" stroke="none" 
	d="
M264.324829,390.465576 
	C272.268341,385.270020 280.809784,385.889008 289.288025,387.193298 
	C291.288422,387.501007 293.014130,389.593811 295.188995,390.933167 
	C295.680817,409.106323 295.863342,427.211670 296.011230,445.317291 
	C296.059875,451.270264 296.018890,457.223969 296.018890,463.482178 
	C285.402405,463.482178 275.174805,463.482178 264.234528,463.482178 
	C264.234528,439.288666 264.234528,415.107300 264.324829,390.465576 
z"/>
<path fill="#1C7EF2" opacity="1.000000" stroke="none" 
	d="
M409.959961,406.001007 
	C409.959961,425.074890 409.959961,444.148804 409.959961,463.509796 
	C398.117981,463.509796 386.554260,463.509796 374.759003,463.509796 
	C374.759003,437.246674 374.759003,411.042114 375.243530,384.418823 
	C380.194305,383.903442 381.675507,387.422150 383.784149,390.387482 
	C385.444550,392.722473 387.291199,395.246918 389.664001,396.676697 
	C393.089111,398.740570 397.104401,399.802643 400.794342,401.456238 
	C403.903961,402.849762 406.908752,404.477142 409.959961,406.001007 
z"/>
<path fill="#21A3F7" opacity="1.000000" stroke="none" 
	d="
M494.557251,378.010315 
	C494.637939,387.373230 494.718658,396.736115 494.319427,406.553955 
	C488.049591,403.318176 482.305389,399.552826 476.453186,395.963654 
	C472.723389,393.676239 468.885773,391.548187 464.994171,389.547638 
	C462.922272,388.482574 460.632812,387.840759 458.441528,387.007904 
	C458.441528,381.898529 458.441528,376.789124 458.441528,371.151733 
	C446.905548,371.151733 436.165497,371.151733 425.140625,371.151733 
	C425.140625,361.547394 425.140625,352.479980 425.140625,342.796600 
	C431.537506,342.796600 437.806488,342.796600 444.542908,343.261902 
	C446.347015,348.691315 448.406891,352.307465 454.684174,352.177521 
	C459.322998,352.081512 461.788910,355.563354 463.102051,360.024719 
	C463.658539,361.915314 465.253326,363.844574 466.905518,364.998383 
	C470.605621,367.582367 474.596222,369.765564 478.551544,371.962524 
	C480.562378,373.079437 482.709808,373.990021 484.872375,374.784668 
	C488.064728,375.957794 491.325562,376.944336 494.557251,378.010315 
z"/>
<path fill="#1D89F4" opacity="1.000000" stroke="none" 
	d="
M410.057037,405.540649 
	C406.908752,404.477142 403.903961,402.849762 400.794342,401.456238 
	C397.104401,399.802643 393.089111,398.740570 389.664001,396.676697 
	C387.291199,395.246918 385.444550,392.722473 383.784149,390.387482 
	C381.675507,387.422150 380.194305,383.903442 375.341370,383.998718 
	C374.954712,380.240997 374.954712,376.484711 374.954712,372.728424 
	C374.760956,372.653198 374.567200,372.577972 374.373444,372.502747 
	C374.010773,373.450317 373.648102,374.397858 372.787811,375.635193 
	C371.474518,375.181274 370.663086,374.432861 369.842499,373.694672 
	C364.639740,369.014282 359.676331,363.937897 352.202759,363.004181 
	C353.514740,357.049835 354.598724,351.027802 356.330078,345.197998 
	C356.678345,344.025360 359.484528,343.582672 361.629089,343.239532 
	C364.708405,345.272797 367.125122,347.576355 369.957550,348.341797 
	C380.813385,351.275604 388.977448,358.651611 397.294312,365.321136 
	C401.334473,368.561066 405.607727,370.666229 409.958038,373.000336 
	C410.023407,383.693665 410.088745,394.386993 410.057037,405.540649 
z"/>
<path fill="#1D89F4" opacity="1.000000" stroke="none" 
	d="
M494.544281,442.010925 
	C494.544281,449.097015 494.544281,456.183105 494.544281,463.532593 
	C482.526062,463.532593 470.779694,463.532593 458.251862,463.532593 
	C458.251862,448.672363 458.251862,433.799744 458.705475,418.478394 
	C466.757263,420.108429 473.047638,424.045380 478.675964,429.723938 
	C483.344940,434.434601 489.209412,437.960297 494.544281,442.010925 
z"/>
<path fill="#1B93F5" opacity="1.000000" stroke="none" 
	d="
M494.665100,441.555603 
	C489.209412,437.960297 483.344940,434.434601 478.675964,429.723938 
	C473.047638,424.045380 466.757263,420.108429 458.803833,418.020935 
	C458.383942,407.983917 458.319305,397.955658 458.348083,387.467651 
	C460.632812,387.840759 462.922272,388.482574 464.994171,389.547638 
	C468.885773,391.548187 472.723389,393.676239 476.453186,395.963654 
	C482.305389,399.552826 488.049591,403.318176 494.195251,407.006927 
	C494.629333,418.370056 494.707642,429.735199 494.665100,441.555603 
z"/>
<path fill="#20B4F7" opacity="1.000000" stroke="none" 
	d="
M474.998779,342.973389 
	C492.742126,342.973389 510.485474,342.973389 528.574829,342.973389 
	C528.574829,352.208588 528.574829,361.255493 528.574829,371.119385 
	C522.709839,371.119385 516.816772,371.119385 510.461121,370.655029 
	C509.307983,368.604187 508.834717,366.872925 507.890289,365.455658 
	C503.264221,358.513428 494.626068,358.949677 488.074951,355.842407 
	C481.525665,352.735962 479.681305,346.816437 474.998779,342.973389 
z"/>
<path fill="#24AAF7" opacity="1.000000" stroke="none" 
	d="
M474.536682,342.887390 
	C479.681305,346.816437 481.525665,352.735962 488.074951,355.842407 
	C494.626068,358.949677 503.264221,358.513428 507.890289,365.455658 
	C508.834717,366.872925 509.307983,368.604187 509.999237,370.569275 
	C505.099030,370.947876 500.198059,370.947876 495.092865,370.947876 
	C494.967987,373.568115 494.882751,375.356476 494.677368,377.577576 
	C491.325562,376.944336 488.064728,375.957794 484.872375,374.784668 
	C482.709808,373.990021 480.562378,373.079437 478.551544,371.962524 
	C474.596222,369.765564 470.605621,367.582367 466.905518,364.998383 
	C465.253326,363.844574 463.658539,361.915314 463.102051,360.024719 
	C461.788910,355.563354 459.322998,352.081512 454.684174,352.177521 
	C448.406891,352.307465 446.347015,348.691315 445.005371,343.345703 
	C454.691833,342.909943 464.383209,342.855682 474.536682,342.887390 
z"/>
<path fill="#207FF2" opacity="1.000000" stroke="none" 
	d="
M352.029175,363.352356 
	C359.676331,363.937897 364.639740,369.014282 369.842499,373.694672 
	C370.663086,374.432861 371.474518,375.181274 372.636230,375.963257 
	C370.530853,387.162781 368.079407,398.324036 365.386444,409.767090 
	C362.078705,406.514435 359.316101,402.639618 355.853180,399.549713 
	C352.910339,396.923920 349.159821,395.203339 345.403076,393.042450 
	C347.311523,383.235291 349.583527,373.467926 352.029175,363.352356 
z"/>
<path fill="#1B93F5" opacity="1.000000" stroke="none" 
	d="
M410.052368,372.539551 
	C405.607727,370.666229 401.334473,368.561066 397.294312,365.321136 
	C388.977448,358.651611 380.813385,351.275604 369.957550,348.341797 
	C367.125122,347.576355 364.708405,345.272797 362.050476,343.329529 
	C377.886200,342.983368 393.772247,342.983368 410.146698,342.983368 
	C410.146698,352.907745 410.146698,362.493286 410.052368,372.539551 
z"/>
</svg>